<?xml version="1.0" standalone="no"?>
<!DOCTYPE svg PUBLIC "-//W3C//DTD SVG 20010904//EN"
 "http://www.w3.org/TR/2001/REC-SVG-20010904/DTD/svg10.dtd">
<svg version="1.0" xmlns="http://www.w3.org/2000/svg"
 width="722.000000pt" height="614.000000pt" viewBox="0 0 722.000000 614.000000"
 preserveAspectRatio="xMidYMid meet">

<g transform="translate(0.000000,614.000000) scale(0.100000,-0.100000)"
fill="#000000" stroke="none">
<path d="M3183 5983 c3 -5 -1 -14 -9 -21 -8 -7 -14 -9 -14 -5 -1 4 -8 -5 -16
-20 -9 -16 -13 -31 -10 -34 3 -3 10 5 14 18 l9 24 7 -23 c7 -20 9 -20 23 -7 8
9 12 23 9 32 -6 14 -4 14 11 2 15 -12 15 -11 -1 14 -10 15 -20 27 -23 27 -2 0
-2 -3 0 -7z"/>
<path d="M4058 5928 c15 -15 16 -32 2 -23 -5 3 -10 -1 -10 -9 0 -22 37 -20 42
2 5 19 -13 42 -34 42 -9 0 -9 -3 0 -12z"/>
<path d="M3950 5785 c-5 -14 -14 -25 -19 -25 -8 0 -78 -100 -106 -152 -5 -10
-14 -18 -20 -18 -9 -1 -95 -176 -95 -195 0 -5 24 -40 54 -79 94 -125 123 -170
493 -769 26 -43 72 -115 101 -160 30 -45 101 -161 159 -257 58 -96 129 -211
158 -255 90 -139 170 -268 196 -318 13 -26 34 -60 45 -74 l21 -27 32 49 c17
28 43 82 57 120 26 69 59 140 155 342 52 108 58 129 35 120 -11 -4 -13 -1 -9
10 5 12 3 14 -6 8 -8 -4 -17 -2 -22 6 -7 11 -8 9 -8 -6 1 -25 17 -75 18 -57 1
6 6 12 11 12 6 0 5 -8 -2 -20 l-13 -20 -9 20 c-5 11 -15 20 -22 20 -8 0 -11
12 -7 40 4 29 2 40 -7 40 -8 0 -22 8 -33 18 -19 16 -20 16 -14 0 11 -30 -13
-20 -52 22 -30 33 -44 40 -74 40 -36 0 -37 1 -37 40 0 36 -2 40 -25 40 -22 0
-25 4 -25 40 0 36 -2 40 -25 40 -22 0 -25 4 -25 40 0 22 5 40 10 40 6 0 10 14
10 30 0 17 -4 30 -10 30 -5 0 -10 -13 -10 -30 0 -27 -3 -30 -30 -30 -23 0 -30
4 -30 20 0 11 5 20 10 20 6 0 10 -4 10 -10 0 -5 5 -10 10 -10 15 0 12 29 -4
46 -8 8 -34 14 -60 14 l-46 0 0 80 0 80 -40 0 -40 0 0 40 0 40 -40 0 c-40 0
-40 0 -40 39 0 22 5 41 12 43 9 3 9 6 0 12 -7 4 -12 2 -12 -3 0 -6 -11 -11
-25 -11 -22 0 -25 4 -25 40 0 29 -4 40 -15 40 -19 0 -21 76 -3 82 9 3 9 6 0
12 -7 4 -12 2 -12 -3 0 -6 -4 -11 -10 -11 -5 0 -10 7 -10 16 0 8 -7 22 -15 30
-9 10 -12 25 -8 44 3 19 1 30 -6 30 -6 0 -11 7 -11 16 0 8 -6 22 -14 30 -17
16 -46 19 -46 4 0 -5 -9 -10 -20 -10 -17 0 -20 7 -20 40 l0 40 -40 0 -40 0 0
79 c0 53 4 81 12 83 9 3 9 6 0 12 -7 4 -12 2 -12 -3 0 -6 -4 -11 -10 -11 -5 0
-10 7 -10 16 0 8 -7 22 -15 30 -20 20 -19 32 3 36 14 3 12 9 -16 37 -23 24
-30 36 -21 41 6 4 8 13 5 19 -4 6 -11 9 -15 7 -4 -3 -20 8 -36 24 l-27 28 23
4 22 3 -26 30 c-20 22 -29 27 -35 17 -7 -10 -12 -8 -26 7 -10 11 -13 20 -6 23
13 4 -14 44 -41 58 -16 9 -21 7 -29 -15z m-28 -338 l21 -29 13 24 c13 23 13
23 11 -7 -2 -23 2 -30 16 -29 15 2 21 -8 18 -28 0 -5 2 -7 7 -6 21 4 42 -16
36 -34 -6 -21 16 -48 49 -61 17 -7 18 -8 1 -24 -12 -12 -13 -18 -4 -21 7 -3
16 2 21 9 5 8 9 12 10 9 8 -45 7 -59 -6 -70 -8 -7 -15 -18 -15 -24 0 -6 5 -3
11 7 7 12 23 17 54 17 l45 0 0 -37 c0 -21 -3 -48 -6 -60 l-6 -22 -19 22 c-10
12 -18 17 -19 10 0 -6 5 -15 10 -18 6 -3 10 -11 10 -17 0 -7 -6 -6 -15 2 -9 8
-15 9 -15 2 0 -6 9 -17 20 -25 11 -8 17 -16 14 -19 -3 -3 0 -9 7 -14 8 -4 10
-3 5 4 -10 17 42 16 57 0 13 -14 18 -100 5 -92 -4 3 -8 18 -8 35 0 16 -4 29
-10 29 -17 0 -11 -41 11 -68 11 -15 24 -25 27 -24 4 2 15 8 25 14 31 16 67 1
67 -28 0 -16 -4 -23 -12 -18 -7 4 -8 3 -4 -4 4 -7 14 -12 22 -12 19 0 18 -16
-1 -24 -8 -3 -15 -15 -15 -26 0 -11 -5 -20 -11 -20 -5 0 -7 5 -3 12 4 6 3 8
-2 5 -6 -3 -16 8 -23 24 -7 16 -17 27 -22 24 -5 -4 -4 -11 1 -18 6 -7 22 -27
35 -46 16 -22 25 -29 25 -19 0 30 22 31 46 2 23 -29 31 -54 17 -54 -5 0 -14
-4 -21 -9 -11 -7 -9 -17 12 -49 14 -23 26 -47 26 -53 0 -7 3 -9 7 -6 4 4 -4
25 -16 47 -12 22 -21 46 -18 53 2 6 11 -1 20 -18 l17 -30 -7 30 -6 30 45 -40
c33 -28 46 -48 47 -67 1 -16 -3 -28 -9 -28 -10 0 -14 13 -11 43 2 12 -5 17
-25 17 -23 0 -25 -2 -13 -16 7 -9 14 -23 15 -31 5 -32 14 -43 31 -37 14 5 15
4 4 -4 -7 -5 -10 -15 -7 -21 4 -6 1 -11 -6 -11 -10 -1 -9 -4 2 -13 8 -7 16
-19 18 -27 3 -14 71 -120 77 -120 2 0 2 8 1 18 -1 12 8 18 27 20 37 4 57 -13
57 -49 0 -22 5 -29 19 -29 11 0 22 -6 25 -12 5 -10 7 -10 12 0 10 22 24 12 24
-18 0 -16 -4 -30 -10 -30 -5 0 -10 -7 -10 -15 0 -8 -4 -15 -10 -15 -5 0 -10
-4 -10 -10 0 -16 27 -12 34 5 11 29 26 15 26 -25 0 -29 4 -40 15 -40 8 0 15
-4 15 -10 0 -5 -7 -10 -15 -10 -8 0 -15 -9 -15 -20 0 -11 7 -20 15 -20 8 0 15
-4 15 -10 0 -5 -7 -10 -15 -10 -12 0 -13 -3 -5 -12 6 -7 18 -22 26 -33 15 -19
15 -19 10 10 -5 24 -4 27 4 12 6 -9 9 -25 6 -35 -7 -22 4 -39 29 -43 11 -3 21
-10 21 -17 1 -6 2 -21 3 -31 0 -11 19 -37 41 -59 32 -33 39 -46 35 -71 -2 -17
-6 -35 -9 -40 -3 -5 2 -8 11 -7 10 2 12 1 6 -1 -16 -6 -16 -13 2 -37 18 -24
20 -43 3 -24 -23 24 -58 77 -58 86 0 10 -135 238 -155 262 -7 8 -26 40 -42 70
-16 30 -52 90 -81 132 -29 42 -52 80 -52 83 0 3 -29 53 -65 111 -68 112 -74
124 -50 104 10 -9 15 -9 15 -1 0 10 -13 15 -32 12 -4 0 -14 12 -23 29 -8 16
-29 49 -46 74 -17 26 -27 51 -23 58 4 7 4 10 -1 6 -7 -6 -39 40 -144 206 -21
32 -29 56 -26 70 5 15 4 17 -3 8 -9 -14 -18 -2 -111 158 -18 30 -52 87 -76
125 -84 135 -157 263 -131 230 9 -11 26 -33 38 -48z m188 -37 c0 -5 -13 -10
-30 -10 -16 0 -30 5 -30 10 0 6 14 10 30 10 17 0 30 -4 30 -10z m20 -40 c0 -5
-4 -10 -10 -10 -5 0 -10 5 -10 10 0 6 5 10 10 10 6 0 10 -4 10 -10z m80 -330
c0 -5 -2 -10 -4 -10 -3 0 -8 5 -11 10 -3 6 -1 10 4 10 6 0 11 -4 11 -10z m400
-510 c0 -5 -4 -10 -10 -10 -5 0 -10 -13 -10 -29 0 -17 5 -33 10 -36 6 -3 10
-12 10 -18 0 -7 -4 -6 -10 3 -8 13 -10 13 -10 -2 0 -9 5 -20 10 -23 6 -3 10
-12 10 -18 0 -7 -7 -3 -15 7 -17 23 -20 14 -5 -15 19 -34 1 -20 -23 19 -19 29
-23 47 -20 85 5 44 7 47 34 47 16 0 29 -4 29 -10z m560 -559 c0 -6 -4 -13 -10
-16 -5 -3 -10 1 -10 9 0 9 5 16 10 16 6 0 10 -4 10 -9z m-37 -72 c-6 -6 -7 3
-4 23 4 28 6 29 9 9 2 -13 0 -27 -5 -32z m-188 -29 c3 -5 1 -10 -4 -10 -6 0
-11 5 -11 10 0 6 2 10 4 10 3 0 8 -4 11 -10z m152 -42 c-3 -8 -6 -5 -6 6 -1
11 2 17 5 13 3 -3 4 -12 1 -19z m-58 -35 c-10 -11 -14 -11 -20 -1 -14 21 -10
26 11 21 16 -4 18 -8 9 -20z m-29 -13 c0 -5 -4 -10 -10 -10 -5 0 -10 5 -10 10
0 6 5 10 10 10 6 0 10 -4 10 -10z"/>
<path d="M3997 5323 c7 -17 20 -17 26 1 4 10 0 14 -12 13 -11 -1 -17 -7 -14
-14z"/>
<path d="M4020 5289 c0 -5 5 -7 10 -4 6 3 10 8 10 11 0 2 -4 4 -10 4 -5 0 -10
-5 -10 -11z"/>
<path d="M4042 5260 c0 -14 2 -19 5 -12 2 6 2 18 0 25 -3 6 -5 1 -5 -13z"/>
<path d="M4100 5205 c-7 -9 -11 -18 -8 -20 3 -3 11 1 18 10 7 9 11 18 8 20 -3
3 -11 -1 -18 -10z"/>
<path d="M4285 4850 c-3 -6 1 -7 9 -4 18 7 21 14 7 14 -6 0 -13 -4 -16 -10z"/>
<path d="M4330 4838 c0 -7 5 -20 10 -28 8 -12 10 -11 10 7 0 12 -4 25 -10 28
-5 3 -10 0 -10 -7z"/>
<path d="M4635 4289 c-4 -6 -5 -12 -2 -15 2 -3 7 2 10 11 7 17 1 20 -8 4z"/>
<path d="M4665 4289 c-4 -6 -5 -12 -2 -15 2 -3 7 2 10 11 7 17 1 20 -8 4z"/>
<path d="M4670 4221 c0 -6 4 -13 10 -16 6 -3 7 1 4 9 -7 18 -14 21 -14 7z"/>
<path d="M4725 4160 c3 -5 11 -10 16 -10 6 0 7 5 4 10 -3 6 -11 10 -16 10 -6
0 -7 -4 -4 -10z"/>
<path d="M4741 4131 c-8 -5 -9 -11 -3 -15 5 -3 12 1 16 9 6 17 6 18 -13 6z"/>
<path d="M4750 4095 c0 -5 5 -17 10 -25 5 -8 10 -10 10 -5 0 6 -5 17 -10 25
-5 8 -10 11 -10 5z"/>
<path d="M4804 4001 c17 -27 32 -47 34 -46 7 6 -32 72 -48 83 -12 7 -7 -5 14
-37z"/>
<path d="M4880 3880 c0 -5 5 -10 10 -10 6 0 10 5 10 10 0 6 -4 10 -10 10 -5 0
-10 -4 -10 -10z"/>
<path d="M4561 4438 c5 -10 11 -18 13 -18 2 0 6 8 8 18 4 12 -1 18 -13 18 -14
0 -15 -4 -8 -18z"/>
<path d="M3060 5769 c-13 -24 -4 -41 10 -19 10 16 13 40 5 40 -2 0 -9 -9 -15
-21z"/>
<path d="M3103 5745 c-7 -8 -13 -30 -13 -50 0 -34 -1 -35 -36 -35 -23 0 -42 7
-51 18 -8 9 -12 12 -8 5 7 -14 -18 -67 -45 -98 -10 -11 -21 -31 -25 -45 l-7
-25 21 24 c20 23 21 23 21 3 0 -11 6 -22 12 -24 9 -3 8 -10 -5 -23 -11 -10
-15 -24 -12 -34 4 -9 9 -22 12 -28 3 -8 -3 -13 -16 -13 -16 0 -21 7 -22 28 -1
16 -3 20 -6 10 -2 -10 -9 -18 -14 -18 -5 0 -9 -4 -9 -10 0 -5 7 -10 15 -10 11
0 15 -11 15 -40 0 -29 -4 -40 -15 -40 -11 0 -15 -11 -15 -40 0 -36 -2 -40 -25
-40 -18 0 -25 -5 -25 -20 0 -11 -7 -20 -15 -20 -19 0 -70 -48 -61 -57 3 -4 14
4 25 15 33 39 51 29 51 -28 l0 -50 -66 0 c-56 0 -70 4 -85 22 l-19 21 6 -31
c5 -22 3 -32 -6 -32 -7 0 -10 7 -6 15 11 30 -15 14 -44 -27 -20 -28 -29 -51
-27 -67 2 -15 2 -20 0 -13 -6 17 -18 15 -34 -5 -12 -14 -12 -16 0 -8 11 6 13
4 8 -9 -4 -10 -7 -20 -7 -22 0 -2 -7 -4 -15 -4 -18 0 -50 -71 -36 -80 6 -3 6
-11 1 -20 -8 -13 -10 -12 -10 3 0 9 -4 17 -10 17 -5 0 -9 -10 -7 -22 1 -15 -3
-22 -12 -20 -9 2 -12 -4 -8 -18 4 -16 2 -20 -9 -16 -9 3 -14 -1 -14 -14 0 -11
-5 -20 -11 -20 -7 0 -9 -9 -6 -21 4 -16 3 -18 -8 -9 -9 8 -15 8 -20 0 -3 -5
-1 -10 4 -10 6 0 -3 -13 -19 -28 -16 -16 -26 -32 -22 -36 4 -4 -1 -14 -12 -21
-10 -8 -15 -19 -10 -26 4 -8 3 -10 -4 -5 -8 5 -12 -1 -12 -16 0 -18 -2 -20
-10 -8 -7 11 -10 12 -10 2 0 -8 -9 -27 -21 -43 -11 -16 -17 -34 -13 -41 4 -7
4 -10 -1 -6 -9 9 -35 -24 -58 -73 -9 -20 -23 -42 -32 -49 -8 -7 -15 -19 -15
-26 0 -8 -4 -14 -10 -14 -5 0 -10 -5 -10 -12 0 -13 -62 -95 -109 -146 -19 -20
-31 -44 -31 -60 0 -32 29 -111 70 -191 15 -31 46 -102 69 -158 51 -128 134
-273 158 -273 6 0 35 44 64 98 42 78 216 360 354 572 12 19 62 98 110 175 49
77 116 183 151 235 34 52 76 120 93 150 18 30 64 105 102 165 38 61 95 153
126 205 50 84 83 136 195 303 l28 41 -24 25 c-13 15 -38 48 -55 75 -26 42 -32
46 -37 30 -4 -10 -19 -37 -34 -59 -15 -22 -52 -85 -83 -140 -63 -111 -106
-169 -107 -145 -1 10 -4 9 -9 -4 -5 -12 -7 2 -7 38 0 40 3 55 12 52 6 -2 22 7
35 20 13 14 29 22 36 20 17 -7 35 27 27 51 -4 13 -3 15 4 4 6 -8 12 -9 16 -3
3 6 1 14 -5 18 -8 4 -7 9 2 15 12 8 11 11 -1 20 -11 8 -12 12 -2 16 16 6 15
31 -3 49 -15 16 -11 63 7 75 5 3 -1 18 -12 32 -12 15 -16 27 -10 27 6 0 8 5 4
11 -4 8 -9 7 -14 -2 -6 -9 -22 2 -57 39 -27 29 -57 52 -66 52 -9 0 -17 5 -17
10 0 14 -13 12 -27 -5z m-109 -149 c-6 -15 -24 -23 -24 -11 0 8 24 34 28 30 1
-1 0 -10 -4 -19z m269 -216 c3 -11 1 -20 -4 -20 -5 0 -9 9 -9 20 0 11 2 20 4
20 2 0 6 -9 9 -20z m-147 -220 c16 0 16 -2 8 -24 -11 -28 -29 -17 -30 17 -1
17 1 26 3 20 3 -7 11 -13 19 -13z m44 8 c0 -9 4 -8 10 2 5 8 10 10 10 4 0 -6
-8 -22 -17 -35 -19 -25 -37 -56 -60 -99 -7 -14 -22 -36 -33 -50 -16 -20 -20
-22 -20 -8 0 10 9 23 20 30 13 8 20 24 20 43 0 24 2 27 11 15 9 -12 10 -11 6
7 -3 15 -1 20 9 16 13 -5 18 13 17 70 0 9 6 17 14 17 7 0 13 -6 13 -12z m-470
-128 c0 -13 -7 -20 -20 -20 -13 0 -20 -7 -20 -20 0 -11 -4 -20 -10 -20 -18 0
-11 30 13 55 27 29 37 31 37 5z m350 -39 c0 -6 -4 -13 -10 -16 -5 -3 -10 1
-10 9 0 9 5 16 10 16 6 0 10 -4 10 -9z m-9 -61 c6 0 -4 -20 -22 -45 -18 -25
-34 -45 -35 -45 -7 0 10 36 22 46 7 5 12 17 12 25 -1 7 0 23 2 34 2 17 3 18 7
3 2 -10 9 -18 14 -18z m-83 -95 c-3 -3 -9 2 -12 12 -6 14 -5 15 5 6 7 -7 10
-15 7 -18z m12 -26 c-7 -11 -14 -18 -17 -15 -3 3 0 12 7 21 18 21 23 19 10 -6z
m-437 -24 c-5 -13 -23 -22 -23 -11 0 15 14 35 21 31 4 -3 6 -12 2 -20z m382
-25 c-3 -5 -1 -10 4 -10 6 0 11 5 11 10 0 6 5 10 10 10 6 0 3 -12 -7 -27 -15
-22 -19 -24 -21 -10 -2 10 -8 15 -13 12 -5 -3 -6 1 -3 9 3 9 10 16 16 16 5 0
6 -4 3 -10z m-31 -89 c-15 -15 -16 -14 -7 3 6 10 9 28 6 40 -3 17 -2 17 7 -3
9 -20 7 -28 -6 -40z m-90 -86 c-1 -11 -4 -29 -8 -40 -5 -13 -2 -11 8 5 8 14
15 32 16 40 0 9 9 16 20 17 l21 2 -21 -29 c-11 -15 -20 -31 -20 -35 0 -7 -23
-42 -85 -130 -25 -36 -27 -37 -21 -12 4 17 2 27 -5 27 -6 0 -17 6 -24 14 -12
12 -12 16 4 30 15 14 20 14 38 1 19 -14 22 -13 32 14 7 15 11 39 10 52 -5 52
1 71 19 67 10 -2 17 -12 16 -23z m-87 -77 c-3 -8 -6 -5 -6 6 -1 11 2 17 5 13
3 -3 4 -12 1 -19z m43 15 c0 -5 -4 -15 -10 -23 -11 -18 -25 -7 -17 15 6 15 27
21 27 8z m-73 -169 c3 -8 0 -21 -7 -27 -10 -9 -11 -7 -5 11 4 13 2 22 -4 22
-11 0 -12 -6 -15 -57 -1 -29 -86 -167 -86 -140 0 9 5 19 10 22 6 3 10 12 10
18 -1 7 -10 1 -22 -13 -17 -20 -20 -21 -14 -5 5 11 11 29 14 40 8 31 35 57 54
52 10 -3 18 -4 18 -2 0 2 3 11 7 21 4 12 3 15 -5 10 -17 -10 -15 16 4 42 18
26 32 28 41 6z m-117 -218 c0 -3 -4 -8 -10 -11 -5 -3 -10 -1 -10 4 0 6 5 11
10 11 6 0 10 -2 10 -4z m-36 -51 c-9 -14 -18 -25 -20 -25 -2 0 2 11 8 25 6 14
15 25 20 25 5 0 1 -11 -8 -25z m-128 -207 c-9 -12 -16 -19 -16 -15 0 11 24 47
28 42 2 -2 -3 -14 -12 -27z"/>
<path d="M2695 4460 c3 -5 11 -10 16 -10 6 0 7 5 4 10 -3 6 -11 10 -16 10 -6
0 -7 -4 -4 -10z"/>
<path d="M2573 4255 c-8 -23 0 -24 20 -3 14 15 15 18 2 18 -9 0 -18 -7 -22
-15z"/>
<path d="M3341 5534 c0 -11 3 -14 6 -6 3 7 2 16 -1 19 -3 4 -6 -2 -5 -13z"/>
<path d="M3290 5530 c0 -5 5 -10 10 -10 6 0 10 5 10 10 0 6 -4 10 -10 10 -5 0
-10 -4 -10 -10z"/>
<path d="M2890 5471 c0 -10 -7 -22 -16 -25 -8 -3 -12 -11 -9 -17 10 -15 45 19
45 43 0 10 -4 18 -10 18 -5 0 -10 -9 -10 -19z"/>
<path d="M2826 5367 c-11 -23 -31 -52 -44 -63 -14 -12 -21 -27 -18 -33 10 -16
26 -13 26 5 0 20 24 44 43 44 11 0 15 12 15 45 -1 25 -2 45 -2 45 -1 0 -10
-20 -20 -43z"/>
<path d="M4390 5370 c0 -5 5 -10 11 -10 5 0 7 5 4 10 -3 6 -8 10 -11 10 -2 0
-4 -4 -4 -10z"/>
<path d="M4290 5310 c0 -5 5 -10 10 -10 6 0 10 5 10 10 0 6 -4 10 -10 10 -5 0
-10 -4 -10 -10z"/>
<path d="M4467 5259 c7 -7 15 -10 18 -7 3 3 -2 9 -12 12 -14 6 -15 5 -6 -5z"/>
<path d="M3187 5239 c7 -24 10 -24 22 -1 7 14 6 18 -9 19 -13 1 -16 -4 -13
-18z"/>
<path d="M2737 5226 c-27 -23 -36 -46 -17 -46 6 0 10 4 10 8 0 5 9 18 21 31
29 31 19 35 -14 7z"/>
<path d="M4475 5220 c3 -5 8 -10 11 -10 2 0 4 5 4 10 0 6 -5 10 -11 10 -5 0
-7 -4 -4 -10z"/>
<path d="M2750 5195 c-8 -9 -8 -15 -2 -15 12 0 26 19 19 26 -2 2 -10 -2 -17
-11z"/>
<path d="M3584 5038 c-34 -68 -142 -236 -172 -267 -8 -8 -11 -24 -8 -37 3 -12
2 -26 -4 -29 -5 -3 -10 -13 -10 -21 0 -8 4 -13 9 -10 5 4 7 -4 3 -16 -5 -21
-6 -21 -13 -2 -7 18 -8 18 -15 -3 -3 -13 -10 -23 -15 -23 -12 0 -11 7 1 31 15
28 7 23 -18 -10 l-21 -29 32 3 32 3 -3 -84 c-3 -81 -4 -84 -27 -84 -13 0 -25
6 -28 13 -2 6 -2 -13 1 -43 4 -52 2 -57 -31 -93 -20 -20 -45 -37 -56 -37 -18
0 -21 -6 -21 -40 0 -36 -2 -40 -25 -40 -17 0 -25 6 -26 18 -1 9 -6 2 -12 -17
-8 -26 -8 -36 1 -39 17 -5 15 -42 -3 -42 -11 0 -15 -11 -15 -40 l0 -40 -40 0
-40 0 0 -40 c0 -36 -2 -40 -25 -40 -21 0 -25 5 -25 28 0 15 -4 34 -9 41 -6 9
-6 22 1 34 16 31 4 28 -14 -4 -10 -17 -14 -27 -9 -24 11 6 25 -50 16 -65 -3
-5 -1 -10 4 -10 6 0 11 -18 11 -40 0 -22 -4 -40 -10 -40 -5 0 -10 5 -10 10 0
6 -4 10 -10 10 -5 0 -10 -9 -10 -20 0 -11 -4 -20 -10 -20 -5 0 -10 5 -10 10 0
6 -7 10 -15 10 -11 0 -14 -10 -11 -42 2 -24 2 -37 -1 -30 -4 10 -8 10 -19 1
-7 -6 -19 -9 -26 -6 -8 4 -7 6 4 6 11 1 20 12 23 29 4 15 11 35 16 45 5 9 7
28 4 40 -4 15 -1 28 9 36 13 11 16 11 16 -3 0 -9 5 -16 10 -16 14 0 12 27 -2
33 -10 4 -10 7 0 18 9 9 12 10 12 1 0 -7 5 -12 10 -12 15 0 12 27 -3 33 -15 6
-54 -39 -82 -93 -10 -19 -44 -73 -75 -120 -73 -108 -160 -248 -160 -258 0 -4
5 0 10 8 9 13 10 13 10 0 1 -12 3 -11 11 3 5 9 14 17 19 17 12 0 -1 -44 -17
-53 -7 -4 -13 -15 -13 -22 0 -8 -5 -15 -10 -15 -7 0 -7 6 0 19 13 26 13 30 -5
27 -18 -3 -44 -31 -69 -77 -42 -77 -59 -105 -72 -120 -8 -9 -12 -25 -8 -35 4
-15 4 -16 -4 -5 -8 11 -16 3 -36 -35 -15 -27 -42 -73 -61 -103 -19 -30 -31
-59 -28 -64 3 -6 2 -7 -4 -4 -9 6 -73 -83 -73 -101 0 -4 -9 -18 -20 -32 -21
-27 -27 -55 -8 -44 7 4 8 3 4 -4 -4 -6 -12 -9 -19 -6 -7 2 -27 -20 -47 -53
-19 -32 -47 -77 -63 -101 -15 -23 -25 -47 -21 -54 4 -6 3 -8 -3 -5 -6 4 -15
-5 -22 -20 -9 -20 -9 -28 0 -33 7 -5 8 -10 1 -14 -6 -3 -12 -1 -14 5 -2 6 -18
-12 -36 -41 -34 -55 -38 -65 -21 -54 7 4 7 -2 -1 -17 -18 -34 -24 -38 -16 -11
5 13 3 22 -3 22 -6 0 -11 -5 -11 -10 0 -6 -11 -27 -23 -48 -13 -20 -43 -67
-66 -104 -25 -39 -40 -72 -35 -79 5 -8 3 -9 -6 -4 -9 6 -10 1 -5 -16 4 -16 3
-20 -3 -11 -7 10 -21 -5 -54 -60 -25 -40 -75 -120 -112 -178 -45 -72 -64 -111
-60 -125 4 -14 3 -16 -4 -7 -7 10 -14 6 -29 -20 -11 -18 -64 -104 -117 -191
-53 -87 -96 -160 -96 -162 0 -2 -30 -53 -67 -112 -36 -59 -78 -128 -92 -153
-14 -25 -53 -85 -86 -135 -34 -49 -76 -117 -95 -150 -54 -97 -64 -115 -134
-225 -36 -58 -66 -113 -66 -123 0 -10 -7 -20 -16 -24 -8 -3 -13 -12 -10 -19 3
-8 1 -14 -4 -14 -6 0 -10 -7 -10 -15 0 -7 -6 -18 -13 -22 -7 -4 -19 -23 -26
-40 -8 -18 -17 -33 -22 -33 -5 0 -9 -4 -9 -9 0 -11 -118 -203 -130 -211 -4 -3
-22 -33 -41 -67 -30 -55 -32 -64 -19 -77 13 -13 109 -16 741 -18 l727 -3 35
50 c35 51 176 291 208 355 9 19 32 49 49 65 34 31 110 129 110 141 0 3 -116 5
-257 4 -142 -2 -295 -2 -341 -2 l-82 2 20 39 c11 22 30 68 43 103 36 94 89
197 186 356 47 79 105 178 129 220 43 75 102 170 227 362 34 52 70 111 80 130
10 19 46 77 80 130 76 116 181 285 385 615 229 371 259 419 401 638 192 297
300 457 309 457 19 0 385 -565 674 -1040 76 -124 168 -274 206 -335 38 -60 83
-132 100 -160 17 -27 75 -120 130 -205 54 -85 167 -270 252 -410 84 -140 190
-313 237 -385 46 -71 112 -182 147 -245 34 -63 83 -149 108 -190 l47 -75 -351
-3 c-192 -1 -350 -6 -350 -10 0 -10 37 -68 93 -148 27 -38 80 -123 119 -188
38 -66 76 -126 84 -133 8 -8 26 -35 41 -61 14 -26 32 -54 39 -62 11 -13 108
-15 778 -12 421 1 766 6 766 10 0 10 -105 186 -179 299 -29 46 -58 80 -64 76
-6 -3 -7 -1 -3 6 8 12 -110 211 -125 211 -5 0 -9 7 -9 16 0 8 -4 13 -8 10 -5
-3 -16 4 -25 15 -24 28 -21 36 5 13 l22 -19 -18 30 c-33 52 -49 73 -43 52 9
-24 -9 -21 -28 6 -13 19 -17 20 -26 7 -9 -12 -10 -12 -5 3 3 10 6 25 6 33 0 9
5 12 11 8 8 -4 8 0 0 15 -13 23 -23 29 -15 8 3 -9 -7 -14 -32 -15 l-36 -3 3
58 c1 32 -3 69 -9 83 -6 14 -11 18 -11 10 -1 -9 4 -21 10 -27 9 -9 8 -15 -3
-27 -13 -13 -15 -11 -16 12 -2 75 -4 82 -19 66 -22 -22 -38 -12 -42 27 -3 28
-5 30 -11 14 -5 -14 -8 -8 -8 23 0 23 3 40 8 37 5 -3 6 -13 3 -23 -4 -13 -3
-14 6 -6 15 13 3 47 -14 40 -16 -6 -40 21 -49 54 l-7 25 21 -25 22 -25 -18 32
c-12 22 -21 29 -25 21 -6 -9 -10 -8 -15 5 -3 9 -12 17 -19 17 -7 0 -11 9 -8
24 6 29 -35 74 -50 54 -6 -10 -7 -9 -4 2 2 8 12 14 22 12 16 -3 15 0 -4 26
-11 17 -21 33 -21 37 0 3 -10 21 -23 38 -13 18 -32 49 -42 69 -11 21 -21 35
-24 33 -6 -7 -41 26 -41 37 0 5 5 6 10 3 6 -3 4 6 -2 22 l-13 28 -3 -28 c-2
-15 -8 -27 -13 -27 -6 0 -7 9 -4 20 3 11 2 20 -3 20 -6 0 -12 -5 -14 -10 -2
-6 -19 5 -38 25 -20 20 -27 33 -17 29 14 -5 16 -2 10 12 -7 18 -6 18 12 0 14
-14 20 -15 23 -6 3 8 10 4 18 -11 7 -13 13 -19 13 -14 0 16 -28 61 -29 46 0
-10 -7 -7 -25 9 -17 16 -25 19 -25 9 0 -12 -2 -11 -10 1 -13 20 -12 39 1 20 9
-13 10 -13 6 0 -2 8 -11 14 -20 12 -9 -1 -21 7 -27 18 -6 11 -8 20 -5 20 3 0
1 10 -6 21 -9 17 -13 19 -20 8 -4 -7 -12 -10 -16 -5 -4 5 -2 11 5 13 6 3 10 8
7 13 -3 5 -1 20 5 35 7 18 7 32 0 43 -9 14 -10 13 -5 -5 4 -14 2 -23 -4 -23
-6 0 -11 6 -11 14 0 8 -6 17 -12 19 -10 4 -9 8 2 16 12 8 12 13 2 23 -9 9 -12
9 -12 -5 0 -9 -4 -17 -10 -17 -5 0 -10 6 -10 14 0 8 -9 31 -21 50 -22 37 -17
50 7 19 7 -10 14 -13 14 -6 0 6 -9 18 -20 26 -12 8 -20 18 -18 23 4 13 -53 95
-62 89 -11 -7 -82 63 -75 74 3 6 -3 28 -15 50 -11 22 -20 49 -20 60 0 11 -5
23 -12 27 -8 5 -9 -6 -5 -41 4 -26 7 -54 7 -62 0 -8 7 -13 16 -11 10 2 19 -2
21 -7 2 -6 -6 -11 -16 -12 -21 -2 -25 6 -36 72 -4 22 -12 49 -18 60 -6 11 -11
22 -10 25 1 3 -16 4 -38 2 -34 -4 -39 -1 -39 16 0 11 -6 23 -12 25 -10 4 -10
8 -2 14 16 12 27 50 16 57 -6 3 -12 -3 -15 -14 -3 -11 -13 -20 -22 -20 -14 0
-16 6 -10 37 4 21 12 41 18 45 7 4 -6 7 -28 5 -33 -2 -40 1 -42 18 -1 11 0 14
3 8 3 -7 12 -13 20 -13 13 0 12 5 -3 30 -9 17 -23 30 -31 30 -10 0 -13 12 -11
45 2 35 -2 50 -20 69 -18 19 -21 29 -13 39 9 10 2 12 -38 11 -44 -2 -50 0 -50
17 0 11 -10 23 -24 29 -13 5 -27 18 -31 29 -7 23 -21 27 -28 9 -2 -7 -8 -10
-12 -6 -5 5 2 17 15 28 13 11 20 23 15 28 -4 4 -10 1 -12 -5 -7 -20 -23 -15
-23 7 0 13 -7 20 -20 20 -22 0 -24 5 -20 73 1 31 -2 47 -10 47 -8 0 -11 10 -7
26 3 16 0 24 -7 21 -6 -3 -12 6 -12 19 -2 22 -1 23 25 6 l26 -16 -20 23 c-14
17 -16 25 -7 28 6 3 12 9 12 14 0 6 -93 155 -104 166 -8 8 -2 -64 7 -74 6 -9
6 -13 -1 -13 -15 0 -21 28 -17 72 2 26 -2 41 -16 54 -10 9 -19 23 -19 30 0 20
-17 26 -39 12 -11 -7 -24 -8 -28 -4 -4 5 -3 11 4 13 7 2 2 13 -13 28 -13 13
-24 34 -24 47 -1 21 -2 22 -14 6 -17 -23 -25 -23 -49 5 -13 15 -21 18 -24 10
-9 -26 -23 -12 -23 23 0 29 3 35 16 30 15 -6 15 -4 3 11 -23 30 -60 63 -70 63
-5 0 -9 9 -9 20 0 11 -4 20 -10 20 -5 0 -10 9 -10 20 0 13 -7 20 -20 20 -15 0
-20 7 -20 29 0 16 -6 32 -12 34 -10 4 -9 8 2 16 8 5 11 14 6 18 -5 4 -11 2
-13 -4 -5 -15 -23 -18 -23 -4 0 13 -56 71 -69 71 -6 0 -11 9 -11 20 0 11 -6
20 -13 20 -8 0 -22 9 -31 19 -17 19 -17 20 19 23 l36 3 -35 39 c-20 21 -36 33
-36 27 0 -6 -4 -11 -10 -11 -5 0 -10 11 -10 24 0 17 -8 27 -27 34 -43 15 -73
46 -73 76 0 24 -13 35 -23 19 -2 -5 -2 -2 0 6 2 8 -6 20 -17 28 -12 9 -20 25
-20 44 0 18 -5 29 -13 29 -8 0 -22 10 -33 21 -10 12 -29 25 -41 30 -33 12 -28
29 8 29 27 0 30 2 19 15 -7 8 -18 15 -26 15 -19 0 -54 54 -54 84 0 14 -4 26
-10 26 -5 0 -10 -13 -10 -30 0 -28 -2 -30 -40 -30 l-40 0 0 80 c0 73 -2 80
-20 80 -17 0 -20 7 -20 40 0 33 -3 40 -20 40 -17 0 -20 7 -20 44 l0 45 -65 -5
-65 -4 0 46 c0 42 2 45 23 39 15 -4 18 -4 8 3 -7 5 -10 15 -7 21 4 6 3 11 -3
11 -5 0 -12 -6 -14 -12 -4 -10 -6 -10 -6 0 -2 22 19 53 31 46 6 -4 9 -3 6 2
-3 5 -2 19 3 32 7 18 14 21 32 17 17 -5 26 -2 31 10 3 9 4 20 2 24 -3 4 4 7
13 8 12 1 26 -13 41 -43 13 -24 25 -42 27 -40 5 5 -75 166 -82 166 -3 0 -21
-33 -41 -72z m-88 -200 c-11 -6 -15 -16 -11 -28 3 -10 1 -21 -4 -25 -7 -4 -9
1 -5 12 5 16 4 16 -10 -1 -31 -38 -25 -9 6 34 19 25 34 38 36 30 3 -7 -3 -17
-12 -22z m96 -513 c2 -11 -1 -22 -7 -25 -5 -3 -11 11 -13 30 -4 37 15 33 20
-5z m-79 -37 c4 -10 8 -10 15 0 16 23 47 10 45 -18 l-3 -25 14 25 c15 26 56
37 56 14 0 -7 3 -21 6 -31 3 -10 -3 -6 -13 10 l-20 27 -59 -100 c-32 -55 -65
-100 -71 -100 -18 0 -16 17 1 23 8 3 12 14 10 24 -3 10 2 27 11 38 16 20 16
20 6 -2 -16 -32 -13 -52 4 -23 8 14 12 33 9 43 -3 9 -1 17 5 17 6 0 8 7 5 15
-4 8 -11 15 -16 15 -6 0 -8 -6 -5 -13 2 -6 -1 -17 -8 -24 -9 -8 -12 -4 -13 20
0 17 5 35 11 40 9 7 9 10 0 14 -15 5 -17 23 -4 23 5 0 12 -6 14 -12z m277 2
c0 -5 -9 -10 -20 -10 -11 0 -20 5 -20 10 0 6 9 10 20 10 11 0 20 -4 20 -10z
m-73 -25 c8 -9 13 -19 10 -22 -6 -5 -37 21 -37 31 0 10 11 6 27 -9z m-22 -86
c10 -23 21 -36 23 -30 2 7 0 17 -6 24 -5 7 -12 21 -16 31 -5 15 -4 17 8 7 11
-9 15 -9 20 1 3 7 3 3 1 -8 -4 -14 0 -24 10 -28 8 -3 15 -12 15 -19 0 -20 26
-41 35 -27 3 5 12 10 18 9 9 0 9 -2 0 -6 -7 -2 -13 -11 -13 -19 0 -8 -4 -14
-10 -14 -5 0 -10 5 -10 10 0 6 -4 10 -10 10 -18 0 -10 -26 15 -50 14 -13 25
-28 25 -34 0 -6 -5 -3 -11 7 -5 9 -15 17 -20 17 -6 0 -2 -13 7 -29 10 -17 22
-27 27 -24 6 3 7 1 3 -5 -4 -6 -2 -21 4 -32 6 -11 9 -20 6 -20 -5 0 -128 207
-144 243 -19 43 1 31 23 -14z m-240 -150 c-9 -17 -19 -29 -22 -26 -5 5 25 57
33 57 3 0 -3 -14 -11 -31z m-32 -54 c-3 -9 -8 -14 -10 -11 -3 3 -2 9 2 15 9
16 15 13 8 -4z m-36 -1 c-3 -3 -12 -4 -19 -1 -8 3 -5 6 6 6 11 1 17 -2 13 -5z
m453 -9 c7 -9 8 -15 2 -15 -5 0 -12 7 -16 15 -3 8 -4 15 -2 15 2 0 9 -7 16
-15z m-440 -13 c0 -4 -16 -32 -35 -62 -19 -30 -35 -48 -35 -39 0 8 8 24 18 35
10 11 22 32 26 47 6 24 26 39 26 19z m461 -22 c-9 -5 -11 -15 -7 -26 7 -17 9
-17 22 6 9 14 13 17 10 7 -3 -11 5 -37 19 -61 14 -24 22 -46 17 -51 -4 -4 3
-2 15 4 19 10 22 9 17 -4 -4 -8 -10 -15 -16 -15 -5 0 -6 -5 -3 -11 5 -6 12 -4
21 8 12 16 13 14 9 -18 -4 -34 -3 -36 23 -33 15 2 19 1 9 -2 -22 -7 -16 -30 7
-28 14 2 16 -4 11 -27 -4 -19 -3 -29 5 -29 6 0 8 5 4 13 -5 8 -2 7 10 -2 9 -8
15 -20 12 -28 -7 -18 12 -66 23 -59 5 3 12 -6 16 -22 6 -26 7 -26 21 -8 16 23
18 17 4 -18 -6 -17 -6 -27 2 -32 6 -4 8 -3 4 4 -3 6 -1 14 5 18 9 5 10 -1 5
-20 -4 -17 -3 -25 5 -24 6 2 18 -15 25 -37 16 -45 52 -88 40 -48 -4 12 -3 24
1 26 4 3 9 -12 11 -34 2 -39 56 -134 71 -125 4 3 7 -3 7 -12 0 -9 4 -28 8 -42
5 -14 -26 29 -69 95 -42 66 -80 122 -84 125 -4 3 -17 25 -30 49 -20 39 -144
240 -256 415 -24 38 -32 57 -22 53 9 -3 19 -2 23 4 3 6 9 8 12 4 4 -3 0 -10
-7 -15z m-955 -18 c-18 -16 -18 -16 -6 6 6 13 14 21 18 18 3 -4 -2 -14 -12
-24z m-16 -47 c0 -8 -7 -15 -16 -15 -14 0 -14 3 -4 15 7 8 14 15 16 15 2 0 4
-7 4 -15z m120 -25 c0 -11 -4 -20 -10 -20 -5 0 -10 9 -10 20 0 11 5 20 10 20
6 0 10 -9 10 -20z m-155 -18 c-6 -4 -19 -20 -29 -35 -9 -16 -20 -26 -23 -24
-7 8 39 67 51 67 8 0 8 -3 1 -8z m453 -27 c-9 -19 -14 -22 -25 -14 -7 6 -13
16 -13 21 0 6 6 6 14 -1 10 -9 15 -8 20 4 3 8 8 15 10 15 3 0 0 -11 -6 -25z
m-462 -29 c0 -14 -5 -21 -9 -17 -4 4 -5 15 -1 24 9 24 12 21 10 -7z m-47 -69
c-1 -23 -4 -32 -6 -19 -2 12 -11 22 -20 22 -10 0 -14 -6 -10 -19 3 -13 1 -18
-8 -15 -8 4 -16 -6 -20 -25 -4 -17 -11 -31 -16 -31 -15 0 -2 34 33 91 17 27
35 46 39 43 5 -3 8 -24 8 -47z m463 23 c-17 -30 -32 -39 -32 -20 0 6 5 10 11
10 6 0 8 7 5 16 -3 8 -2 12 3 9 5 -3 12 -1 16 5 15 24 12 7 -3 -20z m785 -32
c-3 -8 -6 -5 -6 6 -1 11 2 17 5 13 3 -3 4 -12 1 -19z m-865 -13 c3 -13 1 -22
-3 -19 -9 5 -13 44 -5 44 2 0 6 -11 8 -25z m28 15 c0 -5 -5 -10 -11 -10 -5 0
-7 5 -4 10 3 6 8 10 11 10 2 0 4 -4 4 -10z m2 -50 c-9 -16 -21 -30 -25 -30 -9
0 -1 17 21 43 22 25 23 21 4 -13z m-447 1 c3 -5 1 -12 -5 -16 -5 -3 -10 1 -10
9 0 18 6 21 15 7z m-5 -35 c0 -2 -7 -9 -15 -16 -13 -11 -14 -10 -9 4 5 14 24
23 24 12z m70 -16 c0 -5 -4 -10 -10 -10 -5 0 -10 5 -10 10 0 6 5 10 10 10 6 0
10 -4 10 -10z m350 1 c0 -4 -11 -20 -25 -35 -31 -34 -33 -17 -2 18 24 28 27
30 27 17z m-395 -19 c-3 -3 -11 0 -18 7 -9 10 -8 11 6 5 10 -3 15 -9 12 -12z
m1318 -7 c-3 -9 -8 -14 -10 -11 -3 3 -2 9 2 15 9 16 15 13 8 -4z m-988 -5 c-3
-5 -11 -10 -16 -10 -6 0 -7 5 -4 10 3 6 11 10 16 10 6 0 7 -4 4 -10z m-455
-34 c0 -3 -4 -8 -10 -11 -5 -3 -10 -1 -10 4 0 6 5 11 10 11 6 0 10 -2 10 -4z
m420 -40 c0 -3 -4 -8 -10 -11 -5 -3 -10 -1 -10 4 0 6 5 11 10 11 6 0 10 -2 10
-4z m13 -26 c-5 -19 -23 -39 -23 -25 0 9 20 45 24 45 2 0 2 -9 -1 -20z m-56
-37 c-11 -12 -16 -12 -22 -2 -6 8 -4 10 4 5 8 -5 14 0 18 15 4 14 8 18 11 10
2 -7 -2 -20 -11 -28z m-430 8 c0 -11 -5 -17 -9 -15 -4 3 -8 -1 -8 -8 0 -13
-39 -69 -40 -56 0 7 53 98 57 98 1 0 1 -9 0 -19z m2036 -22 c4 -15 2 -19 -8
-15 -8 3 -16 -3 -18 -12 -4 -13 -5 -13 -6 4 0 11 4 25 11 32 15 15 15 16 21
-9z m-1612 -56 c-17 -26 -31 -43 -31 -36 0 6 5 15 10 18 6 4 8 16 4 27 -3 12
-2 18 3 15 6 -4 16 5 24 19 7 14 15 21 17 16 2 -6 -11 -32 -27 -59z m1649 6
c0 -6 -7 -9 -15 -5 -8 3 -15 1 -15 -4 0 -6 -7 -10 -15 -10 -21 0 -19 18 3 23
31 8 42 7 42 -4z m64 -98 c-6 -6 -24 19 -24 34 1 6 7 1 15 -9 8 -11 12 -22 9
-25z m-2245 12 c-12 -15 -12 -16 5 -10 16 6 17 5 6 -8 -10 -12 -15 -13 -21 -4
-9 15 -1 39 13 39 6 0 4 -8 -3 -17z m471 -12 c-11 -21 -30 -37 -30 -25 0 8 30
44 37 44 2 0 -1 -9 -7 -19z m-454 -67 c-19 -19 -21 -11 -4 16 7 11 14 16 16
10 2 -5 -4 -17 -12 -26z m-35 -1 c-8 -15 -10 -15 -11 -2 0 17 10 32 18 25 2
-3 -1 -13 -7 -23z m2315 -12 c-13 -20 -26 -11 -26 16 0 25 1 26 16 11 9 -9 13
-21 10 -27z m-1889 -23 c-9 -13 -26 -42 -39 -66 -26 -51 -41 -65 -65 -60 -14
3 -12 7 14 22 18 11 43 42 59 73 16 29 32 53 37 53 5 0 2 -10 -6 -22z m1429
13 c12 10 17 9 27 -1 7 -7 7 -10 2 -7 -6 3 -17 2 -25 -3 -12 -7 -12 -12 -2
-22 9 -9 12 -9 12 1 0 7 5 9 10 6 6 -3 10 -11 10 -16 0 -6 -4 -7 -10 -4 -12 7
-12 3 -4 -19 3 -9 11 -13 17 -9 6 4 7 1 2 -7 -4 -7 -3 -15 2 -19 10 -7 63 -95
76 -125 4 -10 13 -16 22 -13 9 4 12 1 8 -9 -4 -10 0 -12 11 -8 9 3 16 1 16 -5
0 -6 -5 -11 -11 -11 -5 0 -7 -5 -3 -11 5 -8 9 -8 14 1 5 8 10 9 14 2 3 -6 1
-12 -6 -14 -15 -5 2 -33 21 -33 7 0 20 -11 28 -25 l15 -25 -20 23 c-11 12 -23
18 -26 13 -4 -5 -2 -12 3 -16 6 -3 20 -26 32 -50 16 -31 25 -41 31 -33 5 8 7
4 6 -12 -2 -15 2 -24 9 -23 7 2 10 -4 6 -13 -3 -8 -7 -13 -10 -11 -4 5 -53 84
-115 187 -21 36 -72 117 -113 180 -41 63 -74 122 -74 130 0 11 2 11 6 2 4 -10
8 -10 19 -1z m-1912 -26 c-9 -14 -19 -23 -22 -20 -5 4 26 45 35 45 2 0 -4 -11
-13 -25z m22 -18 c0 -14 -8 -24 -18 -24 -17 -2 -17 -1 0 22 21 30 20 30 18 2z
m-80 -75 c-1 -19 -7 -29 -18 -29 -15 -2 -15 0 0 28 10 16 17 29 18 29 1 0 1
-13 0 -28z m424 -43 c0 -8 6 -7 17 2 31 26 -88 -167 -129 -208 -12 -13 -19
-23 -14 -23 10 0 -38 -84 -71 -123 -22 -28 -29 -25 -17 7 3 9 12 16 19 16 16
0 26 25 19 48 -5 15 -4 15 6 2 10 -13 11 -12 7 5 -3 11 -8 29 -12 40 -5 16 -3
15 7 -3 17 -27 28 -19 28 20 0 21 5 28 19 28 25 0 38 20 21 30 -9 6 -7 11 9
20 19 10 20 13 8 23 -12 10 -11 15 5 30 20 19 20 18 13 -2 -6 -21 -6 -21 18 1
37 35 51 66 36 84 -8 10 -8 14 0 14 6 0 11 -5 11 -11z m-458 -39 c-2 -16 -8
-30 -13 -30 -11 0 -11 3 1 34 13 34 18 33 12 -4z m28 -15 c0 -8 -4 -15 -10
-15 -5 0 -7 7 -4 15 4 8 8 15 10 15 2 0 4 -7 4 -15z m2168 -40 c-3 -3 -9 2
-12 12 -6 14 -5 15 5 6 7 -7 10 -15 7 -18z m-2247 -29 c5 3 9 0 9 -6 0 -15
-23 -7 -26 8 -1 7 0 8 3 2 2 -5 9 -8 14 -4z m-71 -91 c0 -8 -4 -15 -10 -15 -5
0 -7 7 -4 15 4 8 8 15 10 15 2 0 4 -7 4 -15z m-10 -36 c0 8 3 12 6 8 3 -3 1
-14 -5 -24 -6 -11 -11 -13 -11 -5 0 7 -5 10 -11 6 -6 -3 -8 -15 -5 -27 4 -15
2 -17 -6 -9 -9 9 -8 18 2 37 10 18 16 22 22 13 6 -10 8 -10 8 1z m2815 -31
c-4 -16 -3 -19 3 -9 7 10 14 11 31 2 11 -7 21 -13 21 -15 0 -1 -20 -3 -45 -4
-48 0 -55 7 -29 32 21 22 26 20 19 -6z m-340 -133 c11 -16 22 -32 25 -35 4 -3
9 -13 13 -23 5 -14 11 -16 27 -7 16 9 18 8 14 -5 -3 -8 -10 -12 -15 -9 -12 7
-11 -3 2 -27 5 -11 15 -16 21 -13 6 4 8 3 4 -4 -3 -6 14 -42 39 -81 25 -38 45
-72 45 -75 0 -14 49 -74 55 -68 5 4 5 2 1 -5 -4 -7 1 -24 10 -38 9 -14 15 -28
12 -30 -2 -2 -29 37 -59 87 -78 131 -87 145 -166 271 -40 63 -73 121 -73 128
0 8 6 3 13 -11 7 -14 22 -38 32 -55z m-2115 4 c-7 -11 -14 -18 -17 -15 -3 3 0
12 7 21 18 21 23 19 10 -6z m-435 2 c3 -5 1 -12 -5 -16 -5 -3 -10 1 -10 9 0
18 6 21 15 7z m375 -78 c0 9 4 17 10 17 6 0 5 -10 -2 -25 -9 -19 -14 -22 -25
-14 -7 6 -13 19 -13 28 1 13 3 13 15 -3 13 -17 15 -18 15 -3z m2261 -26 c-10
-9 -11 -8 -5 6 3 10 9 15 12 12 3 -3 0 -11 -7 -18z m-2291 -48 c-7 -11 -14
-18 -17 -15 -3 3 -1 12 6 19 6 8 9 23 5 33 -5 17 -5 18 6 2 8 -13 8 -23 0 -39z
m-450 37 c0 -3 -4 -8 -10 -11 -5 -3 -10 -1 -10 4 0 6 5 11 10 11 6 0 10 -2 10
-4z m381 -89 c-8 -8 -11 -7 -11 4 0 9 3 19 7 23 4 4 9 2 11 -4 3 -7 -1 -17 -7
-23z m30 -9 c-12 -18 -33 -54 -46 -80 -14 -26 -29 -49 -35 -53 -15 -9 -12 2 8
33 31 47 42 66 57 100 9 17 20 32 26 32 6 0 1 -15 -10 -32z m-47 -28 c-6 -6
-10 -3 -10 10 0 13 4 16 10 10 7 -7 7 -13 0 -20z m2886 -42 c0 -18 -2 -20 -9
-8 -6 8 -7 18 -5 22 9 14 14 9 14 -14z m-3408 -90 c-7 -7 -12 -8 -12 -2 0 6 3
14 7 17 3 4 9 5 12 2 2 -3 -1 -11 -7 -17z m454 -26 c-18 -16 -18 -16 -6 6 6
13 14 21 18 18 3 -4 -2 -14 -12 -24z m-94 -84 c-7 -7 -12 -8 -12 -2 0 6 3 14
7 17 3 4 9 5 12 2 2 -3 -1 -11 -7 -17z m39 -7 c-12 -16 -21 -32 -21 -36 0 -4
-13 -24 -30 -45 -16 -21 -30 -43 -30 -49 0 -6 -4 -11 -10 -11 -14 0 2 35 33
69 15 17 27 36 27 41 0 16 31 60 42 60 5 0 0 -13 -11 -29z m2708 8 c11 -18 15
-19 23 -8 8 11 9 10 4 -4 -3 -10 -1 -28 5 -39 23 -42 1 -26 -29 22 -17 27 -28
50 -24 50 4 0 13 -10 21 -21z m472 -9 c-4 -3 -10 -12 -13 -20 -3 -10 -6 -8
-10 8 -4 12 -2 20 3 16 5 -3 9 3 9 13 0 15 2 16 10 3 5 -8 5 -17 1 -20z
m-3675 -38 c-18 -16 -18 -16 -6 6 6 13 14 21 18 18 3 -4 -2 -14 -12 -24z
m3705 10 c15 -18 14 -19 -15 -19 -17 0 -25 2 -18 5 6 2 12 10 12 18 0 18 2 18
21 -4z m-402 -87 c0 -5 -6 1 -14 15 -8 14 -14 30 -14 35 0 6 6 -1 14 -15 8
-14 14 -29 14 -35z m20 -70 l0 -20 -11 20 c-6 11 -24 40 -40 65 l-30 45 41
-45 c22 -25 40 -54 40 -65z m-3359 50 c0 -5 -5 -3 -10 5 -5 8 -10 20 -10 25 0
6 5 3 10 -5 5 -8 10 -19 10 -25z m3780 -13 c0 -10 7 -28 16 -40 8 -12 12 -22
9 -22 -11 0 -32 25 -39 48 -4 12 -13 22 -19 22 -7 0 -6 4 3 9 18 12 30 5 30
-17z m-3370 -39 c-1 -10 -12 -31 -26 -48 l-25 -30 12 28 c7 15 16 27 21 27 4
0 8 9 8 20 0 11 2 20 5 20 3 0 5 -8 5 -17z m-58 -45 c-7 -7 -12 -8 -12 -2 0 6
3 14 7 17 3 4 9 5 12 2 2 -3 -1 -11 -7 -17z m3053 -20 c18 -30 25 -35 20 -18
-5 22 -4 23 5 7 7 -10 9 -24 7 -31 -3 -7 4 -26 14 -42 26 -38 51 -84 45 -84
-6 0 -105 155 -113 177 -4 10 -11 21 -17 25 -8 5 -7 8 1 8 6 0 24 -19 38 -42z
m-3077 -73 c-3 -3 -9 2 -12 12 -6 14 -5 15 5 6 7 -7 10 -15 7 -18z m-18 -19
c0 -3 -4 -8 -10 -11 -5 -3 -10 -1 -10 4 0 6 5 11 10 11 6 0 10 -2 10 -4z m-16
-38 c-25 -43 -37 -57 -44 -53 -5 3 4 19 18 35 28 31 38 39 26 18z m3226 -58
c0 -5 10 -11 23 -11 17 -1 18 -2 4 -6 -15 -4 -16 -6 -2 -26 22 -31 19 -44 -4
-16 -29 38 -43 69 -31 69 5 0 10 -4 10 -10z m-3280 -29 c-5 -11 -15 -23 -22
-27 -7 -5 -8 -2 -3 7 21 37 44 55 25 20z m-49 -24 c-10 -9 -11 -8 -5 6 3 10 9
15 12 12 3 -3 0 -11 -7 -18z m9 -42 c-7 -9 -15 -13 -17 -11 -6 6 20 36 26 30
2 -2 -2 -10 -9 -19z m3389 -21 c16 -37 9 -39 -11 -3 -9 16 -14 29 -9 29 4 0
13 -12 20 -26z m-3415 -19 c-4 -8 -8 -15 -10 -15 -2 0 -4 7 -4 15 0 8 4 15 10
15 5 0 7 -7 4 -15z m3930 -47 c-4 -6 -10 -5 -15 3 -14 22 -10 33 6 19 8 -7 12
-17 9 -22z m-452 -33 c12 -24 25 -42 30 -39 4 3 5 -2 2 -10 -3 -9 -1 -16 5
-16 6 0 11 -4 11 -10 0 -18 -17 -11 -28 13 -6 12 -23 41 -37 65 -14 23 -21 42
-15 42 5 0 20 -20 32 -45z m-3516 9 c-4 -9 -9 -15 -11 -12 -3 3 -3 13 1 22 4
9 9 15 11 12 3 -3 3 -13 -1 -22z m-33 -45 c-4 -4 -9 6 -10 24 -1 30 -1 31 8 8
5 -14 6 -28 2 -32z m4024 34 c4 -10 11 -21 17 -25 7 -5 4 -8 -6 -8 -15 0 -38
27 -38 44 0 14 21 4 27 -11z m-4094 -152 c-21 -39 -42 -71 -46 -71 -5 0 4 21
19 48 14 26 33 60 41 75 8 16 17 26 20 23 3 -2 -12 -36 -34 -75z m3717 -10 c0
-10 -49 53 -50 63 0 6 11 -5 25 -24 14 -19 25 -36 25 -39z m466 -19 c-10 -10
-29 15 -21 28 6 9 10 8 17 -4 6 -10 7 -20 4 -24z m-446 -27 c0 -5 -5 -3 -10 5
-5 8 -10 20 -10 25 0 6 5 3 10 -5 5 -8 10 -19 10 -25z m40 -55 c11 -22 19 -40
16 -40 -4 0 -46 68 -46 76 0 13 12 -1 30 -36z m-3837 15 c-3 -9 -8 -14 -10
-11 -3 3 -2 9 2 15 9 16 15 13 8 -4z m4291 -25 c-6 -5 -24 21 -24 34 0 6 6 1
14 -10 8 -10 12 -21 10 -24z m-4304 -4 c0 -2 -7 -9 -15 -16 -13 -11 -14 -10
-9 4 5 14 24 23 24 12z m3960 -180 c0 -12 -14 5 -31 39 -8 16 -6 15 10 -4 12
-13 21 -28 21 -35z m65 -107 c9 -30 5 -25 -25 26 -21 35 -21 38 -3 19 11 -11
24 -31 28 -45z m26 -46 c13 -16 12 -17 -3 -4 -10 7 -18 15 -18 17 0 8 8 3 21
-13z m-4376 -218 c-15 -19 -30 -33 -32 -31 -3 3 7 21 22 41 15 19 30 33 32 31
3 -3 -7 -21 -22 -41z m5020 5 c3 -5 1 -10 -4 -10 -6 0 -11 5 -11 10 0 6 2 10
4 10 3 0 8 -4 11 -10z"/>
<path d="M3870 3881 c0 -6 4 -13 10 -16 6 -3 7 1 4 9 -7 18 -14 21 -14 7z"/>
<path d="M3651 4984 c0 -11 3 -14 6 -6 3 7 2 16 -1 19 -3 4 -6 -2 -5 -13z"/>
<path d="M3561 4894 c0 -11 3 -14 6 -6 3 7 2 16 -1 19 -3 4 -6 -2 -5 -13z"/>
<path d="M3730 4904 c0 -11 68 -114 75 -114 3 0 -12 26 -32 58 -42 67 -43 68
-43 56z"/>
<path d="M3710 4870 c0 -5 5 -10 10 -10 6 0 10 5 10 10 0 6 -4 10 -10 10 -5 0
-10 -4 -10 -10z"/>
<path d="M3630 4810 c0 -5 5 -10 10 -10 6 0 10 5 10 10 0 6 -4 10 -10 10 -5 0
-10 -4 -10 -10z"/>
<path d="M3750 4811 c0 -5 5 -13 10 -16 6 -3 10 -2 10 4 0 5 -4 13 -10 16 -5
3 -10 2 -10 -4z"/>
<path d="M3731 4794 c0 -11 3 -14 6 -6 3 7 2 16 -1 19 -3 4 -6 -2 -5 -13z"/>
<path d="M3810 4777 c0 -14 24 -57 32 -57 5 0 1 12 -9 28 -22 35 -23 36 -23
29z"/>
<path d="M3380 4715 c-7 -9 -11 -18 -8 -20 3 -3 11 1 18 10 7 9 11 18 8 20 -3
3 -11 -1 -18 -10z"/>
<path d="M3826 4690 c22 -45 28 -52 19 -20 -4 14 -14 32 -22 40 -10 11 -9 5 3
-20z"/>
<path d="M3290 4573 c-12 -21 -25 -45 -30 -53 -47 -80 -57 -100 -49 -100 5 0
9 -6 9 -14 0 -8 4 -18 10 -21 7 -4 7 3 0 20 -8 20 -6 34 8 61 10 20 23 35 28
35 5 -1 11 8 13 21 1 12 12 35 23 51 11 15 18 30 15 33 -2 3 -15 -12 -27 -33z"/>
<path d="M3315 4561 c-3 -5 -1 -12 5 -16 5 -3 10 1 10 9 0 18 -6 21 -15 7z"/>
<path d="M4860 4555 c0 -8 4 -15 10 -15 5 0 7 7 4 15 -4 8 -8 15 -10 15 -2 0
-4 -7 -4 -15z"/>
<path d="M3296 4506 c-4 -21 -5 -40 -2 -43 7 -8 18 42 14 64 -3 11 -7 3 -12
-21z"/>
<path d="M4940 4491 c0 -5 7 -15 17 -22 15 -13 15 -12 4 9 -12 23 -21 28 -21
13z"/>
<path d="M3255 4470 c-3 -5 1 -10 10 -10 9 0 13 5 10 10 -3 6 -8 10 -10 10 -2
0 -7 -4 -10 -10z"/>
<path d="M3241 4434 c0 -11 3 -14 6 -6 3 7 2 16 -1 19 -3 4 -6 -2 -5 -13z"/>
<path d="M3190 4401 c0 -6 4 -13 10 -16 6 -3 7 1 4 9 -7 18 -14 21 -14 7z"/>
<path d="M4000 4401 c0 -6 4 -13 10 -16 6 -3 7 1 4 9 -7 18 -14 21 -14 7z"/>
<path d="M5011 4374 c0 -11 3 -14 6 -6 3 7 2 16 -1 19 -3 4 -6 -2 -5 -13z"/>
<path d="M3131 4312 c-17 -27 -31 -52 -31 -56 0 -16 20 7 36 40 11 24 19 31
25 23 4 -7 6 -1 6 14 -1 15 -3 27 -3 27 -1 0 -16 -22 -33 -48z"/>
<path d="M4070 4342 c6 -13 14 -21 18 -18 3 4 -2 14 -12 24 -18 16 -18 16 -6
-6z"/>
<path d="M5030 4341 c0 -6 5 -13 10 -16 6 -3 10 1 10 9 0 9 -4 16 -10 16 -5 0
-10 -4 -10 -9z"/>
<path d="M5010 4335 c0 -5 5 -17 10 -25 5 -8 10 -10 10 -5 0 6 -5 17 -10 25
-5 8 -10 11 -10 5z"/>
<path d="M4085 4300 c-3 -5 1 -10 9 -10 9 0 16 5 16 10 0 6 -4 10 -9 10 -6 0
-13 -4 -16 -10z"/>
<path d="M3136 4258 c-17 -32 -15 -45 3 -33 6 3 11 15 11 26 0 10 5 19 10 19
6 0 10 5 10 10 0 21 -19 9 -34 -22z"/>
<path d="M3077 4233 c-10 -9 -9 -23 1 -23 5 0 9 7 9 15 0 17 -1 18 -10 8z"/>
<path d="M3046 4175 c-20 -30 -21 -41 -2 -26 12 10 29 51 21 51 -1 0 -10 -11
-19 -25z"/>
<path d="M5127 4169 c11 -12 27 -19 34 -16 10 4 7 8 -8 12 -13 4 -23 11 -23
16 0 5 -5 9 -12 9 -7 0 -3 -9 9 -21z"/>
<path d="M4210 4125 c0 -5 5 -17 10 -25 5 -8 10 -10 10 -5 0 6 -5 17 -10 25
-5 8 -10 11 -10 5z"/>
<path d="M4260 4031 c0 -6 4 -13 10 -16 6 -3 7 1 4 9 -7 18 -14 21 -14 7z"/>
<path d="M4226 4021 c-4 -7 -5 -15 -2 -18 9 -9 19 4 14 18 -4 11 -6 11 -12 0z"/>
<path d="M4270 3989 c-25 -9 -25 -9 2 -5 15 2 29 -2 32 -8 3 -7 5 -7 5 1 1 17
-11 21 -39 12z"/>
<path d="M4310 3910 c0 -5 5 -10 11 -10 5 0 7 5 4 10 -3 6 -8 10 -11 10 -2 0
-4 -4 -4 -10z"/>
<path d="M4350 3870 c0 -5 6 -10 13 -10 8 0 20 -11 27 -25 7 -14 17 -25 22
-25 5 0 -3 16 -18 35 -26 34 -44 45 -44 25z"/>
<path d="M4384 3795 c10 -22 22 -44 27 -50 6 -5 2 9 -9 33 -25 55 -39 69 -18
17z"/>
<path d="M1790 3728 c0 -15 -4 -28 -9 -30 -12 -5 -61 -86 -61 -102 0 -8 -4
-16 -8 -18 -5 -1 -33 -51 -63 -111 -75 -148 -82 -160 -113 -198 -25 -29 -50
-78 -46 -88 1 -2 -2 -7 -7 -10 -4 -3 -12 -13 -18 -22 -5 -8 -25 -38 -43 -65
-18 -26 -30 -54 -28 -61 3 -7 1 -13 -4 -13 -5 0 -14 -16 -21 -35 -7 -19 -21
-37 -30 -40 -10 -4 -16 -12 -13 -19 3 -7 -2 -19 -11 -26 -8 -7 -15 -19 -15
-26 0 -8 -4 -14 -9 -14 -7 0 -20 -27 -25 -53 0 -4 -5 -11 -11 -15 -5 -4 -21
-27 -34 -52 -13 -25 -30 -52 -37 -61 -8 -8 -14 -20 -14 -26 0 -6 -6 -13 -14
-16 -7 -3 -17 -18 -20 -33 -4 -16 -21 -48 -37 -72 -16 -24 -27 -48 -24 -53 3
-5 -2 -6 -11 -2 -13 5 -15 3 -9 -7 5 -8 2 -17 -6 -24 -16 -12 -89 -120 -89
-131 0 -3 -13 -25 -28 -48 -16 -23 -43 -69 -62 -102 -18 -33 -45 -78 -59 -100
-14 -22 -25 -44 -26 -48 0 -4 -5 -11 -11 -15 -5 -4 -18 -24 -27 -44 -10 -21
-23 -38 -29 -38 -6 0 -8 -3 -5 -7 4 -3 -1 -16 -12 -27 -10 -12 -55 -82 -99
-156 -44 -74 -92 -150 -106 -169 -14 -19 -26 -39 -26 -43 0 -5 -20 -36 -45
-70 -25 -34 -45 -69 -45 -77 0 -15 -66 -131 -81 -141 -3 -3 -19 -30 -35 -60
-16 -30 -40 -65 -52 -77 -13 -12 -21 -27 -17 -33 4 -7 -2 -14 -14 -17 -11 -3
-18 -9 -15 -14 3 -5 0 -9 -5 -9 -6 0 -11 -6 -11 -12 0 -7 -16 -39 -35 -71 -19
-32 -35 -59 -35 -61 0 -2 10 -2 23 0 86 10 118 15 162 23 28 5 91 13 140 16
50 4 102 8 118 10 22 3 27 -1 27 -19 0 -21 6 -24 61 -29 34 -3 67 -3 73 -1 12
5 144 200 171 254 10 19 37 64 60 100 23 36 74 117 112 180 213 353 261 432
303 505 26 44 89 148 140 230 51 83 113 184 138 225 24 41 54 91 67 110 38 59
207 335 270 439 33 55 82 135 109 178 l48 78 -42 80 c-24 44 -70 121 -102 172
-33 50 -82 145 -109 209 -27 65 -52 120 -54 123 -3 2 -5 -7 -5 -21z m80 -636
c0 -5 -7 -17 -15 -28 -14 -18 -14 -17 -4 9 12 27 19 34 19 19z m-39 -75 c-10
-9 -11 -8 -5 6 3 10 9 15 12 12 3 -3 0 -11 -7 -18z m-43 -79 c-20 -29 -43 -67
-52 -85 -9 -17 -21 -35 -28 -39 -6 -4 -2 9 10 29 15 24 21 44 17 60 -4 14 -2
28 3 31 6 4 8 -2 5 -14 -9 -33 12 -22 30 16 18 37 39 64 46 58 2 -2 -12 -27
-31 -56z m-100 -167 c-7 -12 -16 -21 -21 -21 -4 0 0 11 9 25 20 30 31 26 12
-4z m-69 -113 c-66 -114 -110 -180 -117 -174 -3 3 3 15 12 25 11 12 15 25 10
33 -4 7 -4 10 1 6 13 -12 46 38 38 58 -4 11 -3 15 4 11 7 -4 26 20 48 59 20
36 39 63 42 61 3 -3 -14 -38 -38 -79z m-119 -202 c0 -2 -8 -10 -17 -17 -16
-13 -17 -12 -4 4 13 16 21 21 21 13z m-52 -85 c-7 -12 -16 -21 -21 -21 -4 0 0
11 10 24 22 29 30 27 11 -3z m-57 -88 c-17 -26 -31 -44 -31 -39 0 11 54 95 59
90 2 -2 -10 -25 -28 -51z m-48 -80 c-4 -10 -23 -42 -43 -73 -21 -30 -40 -65
-44 -77 -4 -13 -11 -23 -16 -23 -10 0 27 78 46 98 8 7 14 20 14 27 0 8 6 18
13 22 8 4 16 16 20 26 3 9 9 17 11 17 3 0 2 -8 -1 -17z m-154 -262 c-33 -52
-49 -69 -28 -28 17 33 53 86 57 83 1 -2 -12 -27 -29 -55z m-58 -84 c-10 -9
-11 -8 -5 6 3 10 9 15 12 12 3 -3 0 -11 -7 -18z m-26 -53 c-8 -16 -15 -23 -15
-16 0 13 22 53 27 48 2 -2 -3 -16 -12 -32z m-25 -32 c0 -5 -7 -17 -15 -28 -14
-18 -14 -17 -4 9 12 27 19 34 19 19z"/>
<path d="M5395 3659 c-20 -39 -44 -83 -54 -98 -93 -136 -211 -365 -211 -407 0
-9 15 -37 34 -63 32 -44 215 -344 316 -516 25 -44 96 -156 156 -250 154 -237
228 -356 381 -610 96 -160 261 -426 425 -682 113 -178 103 -170 202 -157 42 6
47 10 44 28 -4 18 1 22 25 24 28 2 156 -19 227 -38 19 -5 46 -11 60 -14 14 -3
57 -13 95 -21 88 -20 125 -25 125 -17 0 22 -51 105 -90 147 -40 43 -120 156
-120 170 0 3 -21 37 -47 77 -27 39 -52 78 -58 87 -5 9 -24 36 -41 61 -17 25
-42 65 -55 89 -27 49 -29 53 -82 134 -20 31 -37 61 -37 66 0 4 -9 16 -20 26
-11 10 -20 22 -20 26 0 5 -16 33 -35 63 -19 30 -35 57 -35 60 0 3 -16 30 -35
60 -19 30 -35 60 -35 66 0 5 -3 10 -8 10 -4 0 -13 13 -20 30 -7 16 -42 71 -76
122 -35 51 -75 116 -90 143 -16 28 -45 75 -66 106 -21 32 -36 60 -33 63 4 3 1
6 -5 6 -6 0 -13 9 -17 19 -4 12 -12 18 -21 14 -10 -4 -14 2 -14 21 0 15 -7 29
-15 32 -8 4 -13 10 -10 14 3 5 -4 24 -16 44 -15 25 -25 33 -37 29 -15 -6 -15
-5 -3 10 8 10 11 20 7 24 -3 4 -13 -2 -21 -13 -8 -10 -15 -14 -15 -9 0 6 5 16
11 22 19 19 -8 55 -34 47 -21 -6 -21 -6 -2 12 17 18 17 19 1 22 -10 2 -15 10
-12 17 3 9 0 12 -8 9 -8 -3 -17 -1 -21 5 -3 6 -2 11 3 11 6 0 8 9 5 21 -4 16
-8 17 -14 7 -6 -9 -9 -5 -9 14 0 16 -12 40 -30 60 -17 18 -28 39 -25 47 4 9 0
11 -10 7 -9 -3 -14 -2 -11 3 10 15 -73 131 -89 124 -8 -3 -15 -14 -15 -24 0
-14 -7 -19 -30 -19 -23 0 -30 4 -30 20 0 11 5 20 10 20 6 0 10 9 10 20 0 12 7
20 18 21 10 0 12 3 5 6 -7 2 -13 18 -13 35 0 16 -7 36 -15 44 -8 9 -15 11 -15
5 0 -16 -47 -13 -53 3 -3 8 -2 29 3 47 9 31 2 58 -7 32 -3 -7 -10 -13 -16 -13
-8 0 -7 4 1 12 7 7 12 21 12 32 0 17 -2 18 -10 6 -6 -10 -9 -5 -8 18 1 18 -4
38 -10 44 -9 9 -12 7 -12 -10 0 -12 -4 -22 -9 -22 -5 0 -7 17 -5 38 6 45 -10
75 -27 52 -9 -12 -10 -12 -5 4 4 10 1 25 -5 32 -6 7 -8 18 -4 24 4 6 -7 10
-28 10 -32 0 -33 1 -29 32 5 30 6 31 13 10 9 -23 19 -30 19 -12 0 5 -14 25
-31 45 -17 19 -26 35 -20 35 6 0 11 -5 11 -12 0 -6 3 -9 6 -5 4 3 -5 21 -20
39 -38 48 -41 52 -50 67 -7 10 -5 12 4 6 8 -5 11 -3 8 5 -10 31 -28 17 -63
-51z m-65 -476 c0 -10 6 -13 23 -8 15 4 18 3 9 -3 -12 -8 -11 -15 4 -43 16
-31 18 -32 26 -14 7 18 8 17 4 -3 -3 -13 2 -42 10 -65 17 -49 12 -45 -19 14
-13 24 -46 86 -75 137 -60 106 -68 130 -17 53 19 -29 35 -59 35 -68z m407 -35
c-3 -7 -5 -2 -5 12 0 14 2 19 5 13 2 -7 2 -19 0 -25z m-347 2 c0 -5 -2 -10 -4
-10 -3 0 -8 5 -11 10 -3 6 -1 10 4 10 6 0 11 -4 11 -10z m64 -190 c-6 -5 -24
21 -24 34 0 6 6 1 14 -10 8 -10 12 -21 10 -24z m26 -28 c0 -11 8 -26 18 -35 9
-9 28 -37 42 -64 14 -26 28 -50 33 -51 4 -2 5 -8 1 -13 -7 -12 3 -11 29 2 21
11 21 10 5 -6 -15 -17 -15 -21 -2 -48 9 -16 18 -27 21 -24 2 3 -1 16 -8 29
-12 22 -11 22 6 8 17 -14 18 -13 11 15 -4 16 -4 26 0 22 4 -4 9 -29 10 -54 0
-26 6 -49 13 -51 6 -2 11 -14 11 -28 0 -16 4 -22 14 -18 8 3 17 0 21 -6 6 -9
10 -9 16 1 6 10 9 10 9 2 0 -19 -21 -27 -31 -12 -4 7 -11 11 -14 7 -4 -3 1
-18 11 -33 13 -20 19 -23 26 -13 7 10 8 9 4 -4 -3 -10 -1 -20 5 -24 6 -3 8
-11 6 -18 -6 -16 19 -50 32 -42 5 4 9 -2 9 -11 -1 -10 13 -42 31 -71 19 -29
31 -55 29 -57 -2 -3 -15 14 -29 36 -13 22 -38 59 -55 82 -17 23 -44 67 -59 97
-15 30 -31 57 -35 60 -16 11 -30 50 -24 67 4 12 3 14 -3 5 -10 -13 -35 21 -99
133 -16 28 -39 65 -51 84 -25 37 -29 51 -13 51 6 0 10 -8 10 -18z m460 -65 c8
-3 0 -4 -17 -4 -18 1 -33 3 -33 4 0 1 3 9 6 17 5 14 8 14 18 2 6 -7 18 -16 26
-19z m-132 -432 c-3 -3 -9 2 -12 12 -6 14 -5 15 5 6 7 -7 10 -15 7 -18z m56
-131 c3 -8 9 -13 13 -11 5 3 8 -8 9 -24 1 -16 0 -28 -1 -27 -26 39 -44 78 -37
78 5 0 13 -7 16 -16z m70 -119 c14 -26 22 -32 28 -23 6 9 7 6 4 -8 -4 -13 1
-29 14 -43 10 -13 22 -31 25 -41 3 -10 13 -17 22 -16 9 0 18 -6 20 -14 4 -12
2 -12 -5 -2 -5 7 -15 12 -22 10 -7 -2 -35 33 -63 77 -27 44 -54 83 -61 87 -7
5 -6 8 4 8 9 0 24 -16 34 -35z m111 -186 c9 -17 14 -33 12 -36 -4 -3 -37 53
-37 64 0 11 12 -1 25 -28z m81 -126 c2 -27 1 -27 -14 3 -8 15 -8 21 1 21 7 0
13 -11 13 -24z m39 -65 c16 -28 19 -30 25 -13 6 17 7 16 13 -6 4 -13 7 -34 7
-47 0 -13 11 -38 24 -55 34 -47 42 -67 12 -32 -14 17 -40 57 -58 90 -17 33
-37 64 -45 68 -7 4 -13 12 -13 17 0 20 16 9 35 -22z m128 -220 c6 -22 5 -22
-8 -4 -17 22 -20 40 -6 32 5 -3 11 -16 14 -28z m41 -68 c-6 -5 -24 21 -24 34
0 6 6 1 14 -10 8 -10 12 -21 10 -24z m35 -65 c0 -5 -6 1 -14 15 -8 14 -14 30
-14 35 0 6 6 -1 14 -15 8 -14 14 -29 14 -35z m79 -130 c-3 -3 -9 2 -12 12 -6
14 -5 15 5 6 7 -7 10 -15 7 -18z"/>
<path d="M6191 1764 c0 -11 3 -14 6 -6 3 7 2 16 -1 19 -3 4 -6 -2 -5 -13z"/>
<path d="M4460 3715 c0 -3 8 -18 17 -32 17 -25 17 -27 1 -20 -10 3 -20 1 -24
-5 -4 -7 -3 -8 4 -4 7 4 12 2 12 -5 0 -8 4 -8 15 1 12 10 15 9 15 -4 0 -9 7
-19 15 -22 8 -4 15 -11 15 -16 0 -6 -12 -2 -27 7 -24 16 -26 16 -20 0 4 -9 7
-21 7 -27 0 -6 7 -7 18 -3 9 4 23 8 30 8 17 1 15 10 -6 33 -10 10 -28 36 -41
57 -21 34 -31 45 -31 32z"/>
<path d="M4576 3513 c-6 -14 -5 -15 5 -6 7 7 10 15 7 18 -3 3 -9 -2 -12 -12z"/>
<path d="M4616 3467 c3 -10 9 -15 12 -12 3 3 0 11 -7 18 -10 9 -11 8 -5 -6z"/>
<path d="M3600 3284 c-6 -14 -10 -27 -10 -30 0 -2 -21 -36 -47 -76 -27 -39
-52 -78 -58 -87 -5 -9 -18 -29 -29 -44 -10 -16 -34 -58 -54 -95 l-35 -67 31
34 c18 18 32 36 32 40 0 4 6 15 13 26 13 16 14 15 10 -16 -3 -31 -2 -32 7 -10
6 13 8 32 5 41 -7 22 4 52 16 44 5 -3 9 9 9 25 0 18 5 31 13 31 6 0 22 20 33
43 16 30 27 41 40 39 15 -2 16 -1 5 7 -11 7 -10 13 8 32 11 12 21 17 21 11 0
-19 18 -14 23 6 3 12 5 11 6 -6 0 -13 5 -21 10 -17 11 6 -19 95 -31 95 -5 0
-13 -12 -18 -26z"/>
<path d="M4815 3150 c3 -5 8 -10 11 -10 2 0 4 5 4 10 0 6 -5 10 -11 10 -5 0
-7 -4 -4 -10z"/>
<path d="M4860 3060 c-8 -5 -12 -12 -9 -15 4 -3 12 1 19 10 14 17 11 19 -10 5z"/>
<path d="M4860 3009 c0 -5 5 -7 10 -4 6 3 10 8 10 11 0 2 -4 4 -10 4 -5 0 -10
-5 -10 -11z"/>
<path d="M4910 2995 c22 -24 30 -29 30 -22 0 8 -38 47 -45 47 -5 0 2 -11 15
-25z"/>
<path d="M4851 2964 c0 -11 3 -14 6 -6 3 7 2 16 -1 19 -3 4 -6 -2 -5 -13z"/>
<path d="M3477 2946 c-4 -10 -5 -21 -2 -24 9 -9 17 6 13 25 -3 17 -4 17 -11
-1z"/>
<path d="M3401 2884 c0 -11 3 -14 6 -6 3 7 2 16 -1 19 -3 4 -6 -2 -5 -13z"/>
<path d="M4946 2873 c-6 -14 -5 -15 5 -6 7 7 10 15 7 18 -3 3 -9 -2 -12 -12z"/>
<path d="M4976 2875 c-3 -8 -1 -15 4 -15 6 0 10 7 10 15 0 8 -2 15 -4 15 -2 0
-6 -7 -10 -15z"/>
<path d="M3350 2858 c-6 -13 -15 -31 -22 -40 -10 -13 -10 -20 -1 -29 9 -9 11
-7 6 10 -4 15 -1 21 11 21 9 0 16 6 17 13 0 6 2 20 4 30 5 24 -4 21 -15 -5z"/>
<path d="M3380 2856 c0 -8 5 -18 10 -21 6 -3 10 1 10 9 0 8 -4 18 -10 21 -5 3
-10 -1 -10 -9z"/>
<path d="M3481 2844 c-12 -14 -12 -17 0 -24 11 -7 9 -13 -9 -28 -12 -11 -22
-27 -22 -36 0 -9 -8 -16 -20 -16 -13 0 -20 -7 -20 -20 0 -11 -4 -20 -10 -20
-6 0 -10 -33 -10 -80 l0 -80 -70 0 -70 0 0 -80 0 -80 -43 0 -43 0 2 43 c2 28
1 32 -3 12 -5 -32 -20 -55 -35 -55 -5 0 -2 10 6 22 18 26 21 48 6 48 -5 0 -10
-7 -10 -16 0 -19 -28 -49 -38 -40 -3 4 -2 10 4 14 15 10 36 52 26 52 -12 0
-83 -103 -147 -214 -56 -98 -62 -112 -45 -101 6 3 7 -1 3 -10 -4 -12 -8 -13
-13 -5 -5 8 -29 -21 -65 -77 -32 -48 -78 -119 -104 -156 -25 -37 -62 -96 -81
-130 -20 -34 -54 -89 -75 -122 -53 -80 -62 -96 -73 -120 -6 -11 -31 -52 -58
-90 -27 -39 -72 -115 -102 -170 -131 -244 -137 -256 -123 -264 7 -5 206 -12
443 -16 412 -7 430 -7 443 11 8 11 14 14 15 7 0 -10 87 -13 403 -12 221 0 432
3 469 8 38 4 71 4 75 0 9 -8 194 -11 646 -10 296 1 298 1 287 21 -6 11 -16 17
-22 14 -6 -4 -8 -3 -5 3 9 15 -48 106 -69 110 -10 2 -49 3 -86 3 -38 0 -68 5
-68 10 0 6 -15 10 -34 10 -66 0 -126 12 -126 26 0 8 -9 14 -20 14 -22 0 -27
15 -7 24 10 5 10 7 0 12 -20 9 -15 24 7 24 11 0 20 -4 20 -10 0 -5 7 -10 15
-10 8 0 15 5 15 10 0 6 -7 10 -15 10 -12 0 -15 19 -15 110 l0 110 -30 0 c-23
0 -30 4 -30 20 0 11 -4 20 -10 20 -5 0 -10 18 -10 40 0 22 -4 40 -10 40 -5 0
-10 -4 -10 -10 0 -5 -9 -10 -20 -10 -15 0 -20 7 -20 25 0 18 -18 44 -60 86
-33 33 -60 65 -60 72 0 7 -31 45 -70 85 -55 57 -70 79 -70 102 0 28 -2 30 -40
30 -40 0 -40 0 -40 39 0 22 5 41 13 44 10 4 10 7 0 18 -11 11 -13 10 -13 -4 0
-13 -9 -17 -40 -17 l-40 0 0 40 c0 38 -2 40 -30 40 -28 0 -30 2 -30 40 0 30
-4 40 -16 40 -8 0 -31 16 -50 36 -28 30 -34 44 -34 80 0 24 -4 44 -10 44 -5 0
-10 7 -10 15 0 29 -31 65 -56 65 -21 0 -24 5 -24 40 l0 40 -50 0 -50 0 0 40
c0 33 -3 40 -20 40 -18 0 -20 -7 -20 -74 0 -41 -2 -80 -3 -88 -2 -7 -2 -10 0
-5 3 4 16 7 29 7 20 0 24 -5 24 -30 0 -16 -5 -30 -11 -30 -6 0 -17 -7 -25 -15
-14 -13 -13 -18 5 -41 15 -19 21 -22 21 -11 0 9 -4 19 -10 22 -22 13 -8 20 46
22 40 1 61 -3 72 -13 13 -14 13 -17 1 -26 -11 -7 -11 -11 -1 -15 26 -10 10
-23 -28 -23 -39 0 -45 6 -41 38 1 6 -5 12 -14 12 -12 0 -15 -6 -9 -22 3 -13
11 -29 16 -35 6 -7 8 -20 4 -28 -7 -21 6 -50 23 -50 8 0 16 -7 18 -15 4 -13 3
-13 -6 0 -9 12 -13 12 -19 3 -5 -9 -15 2 -30 32 -12 25 -18 45 -13 45 5 0 12
-6 14 -12 4 -10 6 -10 6 0 1 7 -5 20 -13 28 -17 16 -30 19 -21 4 3 -5 4 -10 2
-10 -12 0 -51 78 -52 102 0 38 -19 40 -23 3 -2 -16 -19 -51 -37 -76 -18 -26
-41 -62 -51 -80 -16 -31 -18 -32 -26 -14 -7 17 -8 16 -4 -5 4 -18 -10 -49 -50
-110 -30 -47 -60 -96 -66 -110 -24 -48 -138 -239 -147 -244 -5 -3 -9 10 -8 29
1 19 5 35 10 35 4 0 5 -4 2 -10 -3 -5 -2 -10 3 -10 10 0 56 79 49 86 -2 2 -11
-9 -19 -25 -9 -21 -18 -27 -27 -22 -10 7 -8 14 9 31 18 18 20 24 9 32 -11 7
-11 11 -1 15 14 6 16 33 2 33 -5 0 -10 7 -10 15 0 18 21 20 39 3 11 -10 14
-10 18 0 7 18 23 15 23 -5 0 -15 2 -15 9 -4 6 9 5 24 -2 39 -9 20 -9 26 1 30
6 2 12 10 12 18 0 9 -4 12 -10 9 -6 -4 -10 12 -10 39 l0 46 -40 0 -40 0 0 40
0 40 40 0 40 0 0 40 c0 29 4 40 15 40 11 0 15 11 15 40 0 36 3 40 25 40 25 0
25 1 25 80 0 73 2 80 20 80 18 0 20 7 20 80 0 47 4 80 10 80 6 0 10 18 10 40
0 22 5 40 10 40 6 0 10 -18 10 -40 l0 -40 60 0 60 0 0 80 0 80 -57 0 c-40 -1
-62 -6 -72 -16z m-394 -513 c-2 -26 -4 -28 -18 -15 -9 8 -19 11 -23 7 -4 -4
-4 1 0 12 5 11 9 14 12 7 5 -17 22 -15 22 3 0 8 2 15 5 15 2 0 3 -13 2 -29z
m-83 -98 c4 -10 4 -14 0 -10 -4 4 -14 1 -22 -6 -13 -11 -14 -9 -1 11 17 26 15
26 23 5z m793 -35 c-3 -8 -6 -5 -6 6 -1 11 2 17 5 13 3 -3 4 -12 1 -19z m-796
-11 c-6 -8 -8 -23 -5 -33 6 -15 2 -14 -14 5 -12 13 -22 29 -22 35 0 6 5 4 10
-4 9 -13 12 -13 21 3 6 10 13 16 16 13 3 -3 1 -12 -6 -19z m768 -34 c10 -22
14 -24 23 -12 8 11 9 10 4 -5 -4 -10 -1 -25 5 -32 6 -7 9 -17 7 -22 -1 -5 -17
15 -35 44 -17 30 -28 54 -24 54 4 0 13 -12 20 -27z m-759 -83 c0 -5 -4 -10
-10 -10 -5 0 -10 5 -10 10 0 6 5 10 10 10 6 0 10 -4 10 -10z m872 -95 c25 -63
63 -89 80 -55 6 11 7 10 5 -5 -2 -12 -10 -19 -20 -19 -26 3 -30 9 89 -170 31
-47 73 -120 80 -137 3 -11 13 -15 25 -12 14 4 19 0 19 -13 0 -16 -2 -16 -10
-4 -5 8 -12 12 -15 8 -4 -3 6 -25 20 -49 41 -64 74 -129 67 -129 -4 0 -23 28
-42 63 -51 92 -151 261 -214 357 -30 47 -66 105 -79 130 -13 25 -34 63 -47 85
l-22 40 26 -30 c14 -16 31 -43 38 -60z m-1049 0 c-3 -9 -8 -14 -10 -11 -3 3
-2 9 2 15 9 16 15 13 8 -4z m1115 -23 c8 8 12 8 12 1 0 -9 -31 -28 -34 -21 -1
2 -8 12 -16 23 -14 19 -14 19 6 3 16 -14 23 -15 32 -6z m-1138 -22 c0 -5 -5
-10 -11 -10 -5 0 -7 5 -4 10 3 6 8 10 11 10 2 0 4 -4 4 -10z m33 -10 c3 -11 1
-18 -4 -14 -5 3 -9 12 -9 20 0 20 7 17 13 -6z m361 -116 c3 -9 6 -23 6 -32 -1
-12 -5 -10 -15 8 -8 14 -14 28 -15 33 0 13 18 7 24 -9z m-12 -58 c7 4 8 2 4
-5 -11 -17 -26 -3 -25 22 2 22 2 22 6 -1 3 -13 9 -19 15 -16z m-6 -68 c-15
-32 -61 -93 -54 -73 7 21 63 113 67 110 2 -3 -4 -19 -13 -37z m-526 12 c0 -5
-5 -10 -11 -10 -5 0 -7 5 -4 10 3 6 8 10 11 10 2 0 4 -4 4 -10z m21 -17 c-12
-20 -14 -14 -5 12 4 9 9 14 11 11 3 -2 0 -13 -6 -23z m439 -103 c-13 -24 -16
-25 -24 -4 -3 8 -2 12 3 9 5 -3 12 -1 16 5 11 19 16 10 5 -10z m648 -25 c-3
-3 -9 2 -12 12 -6 14 -5 15 5 6 7 -7 10 -15 7 -18z m432 -8 c0 -5 -4 -5 -10
-2 -5 3 -10 14 -10 23 0 15 2 15 10 2 5 -8 10 -19 10 -23z m-1640 -11 c0 -3
-4 -8 -10 -11 -5 -3 -10 -1 -10 4 0 6 5 11 10 11 6 0 10 -2 10 -4z m-34 -83
c-3 -4 -6 -1 -6 7 0 10 -3 10 -15 0 -18 -15 -20 1 -3 18 9 9 14 9 21 -4 5 -8
6 -18 3 -21z m523 2 c-12 -19 -23 -35 -25 -35 -6 0 14 40 29 58 18 23 16 12
-4 -23z m1239 -50 c-3 -3 -9 2 -12 12 -6 14 -5 15 5 6 7 -7 10 -15 7 -18z
m-1853 -46 c-5 -14 -3 -19 3 -15 6 3 8 -1 6 -11 -5 -16 3 -18 86 -13 88 5 92
4 116 -21 13 -14 21 -28 17 -32 -3 -4 1 -7 10 -7 10 0 17 -4 17 -9 0 -9 -224
-26 -237 -18 -5 3 -27 2 -51 -3 -48 -8 -57 7 -22 37 11 10 20 29 20 42 0 24 0
24 16 5 15 -18 15 -18 9 4 -6 21 1 62 11 62 3 0 2 -10 -1 -21z m1835 -33 c0
-5 -7 -1 -15 10 -8 10 -14 24 -14 29 0 6 6 1 14 -9 8 -11 15 -24 15 -30z
m-1307 -11 c-3 -9 -8 -14 -10 -11 -3 3 -2 9 2 15 9 16 15 13 8 -4z m1327 -30
c0 -7 5 -16 10 -18 6 -3 5 -4 -1 -3 -7 1 -16 12 -20 25 -6 14 -5 20 1 16 6 -3
10 -12 10 -20z m266 -30 c14 -13 14 -17 -1 -31 -15 -16 -18 -16 -33 0 -10 10
-12 16 -4 16 7 0 12 7 12 15 0 8 3 15 6 15 3 0 12 -7 20 -15z m414 -190 c14
-19 14 -19 -2 -6 -10 7 -18 18 -18 24 0 6 1 8 3 6 1 -2 9 -13 17 -24z"/>
<path d="M3277 2743 c-4 -3 -7 -16 -6 -27 0 -19 1 -19 10 3 10 24 8 36 -4 24z"/>
<path d="M3300 2715 c0 -8 4 -15 10 -15 5 0 7 7 4 15 -4 8 -8 15 -10 15 -2 0
-4 -7 -4 -15z"/>
<path d="M3236 2663 c-6 -14 -5 -15 5 -6 7 7 10 15 7 18 -3 3 -9 -2 -12 -12z"/>
<path d="M3975 2660 c3 -5 8 -10 11 -10 2 0 4 5 4 10 0 6 -5 10 -11 10 -5 0
-7 -4 -4 -10z"/>
<path d="M5092 2651 c2 -8 13 -20 24 -28 18 -11 21 -11 21 1 0 9 -4 13 -9 10
-5 -4 -16 2 -24 12 -9 12 -14 13 -12 5z"/>
<path d="M3240 2630 c0 -5 7 -10 16 -10 8 0 12 5 9 10 -3 6 -10 10 -16 10 -5
0 -9 -4 -9 -10z"/>
<path d="M3184 2583 c-37 -61 -46 -83 -34 -83 5 0 11 -6 13 -12 2 -7 3 0 1 15
-2 16 3 35 11 44 8 8 15 10 15 4 0 -6 5 -11 11 -11 6 0 8 8 4 20 -3 10 -1 29
5 40 23 44 1 29 -26 -17z"/>
<path d="M3210 2580 c0 -5 5 -10 10 -10 6 0 10 5 10 10 0 6 -4 10 -10 10 -5 0
-10 -4 -10 -10z"/>
<path d="M5166 2577 c3 -10 9 -15 12 -12 3 3 0 11 -7 18 -10 9 -11 8 -5 -6z"/>
<path d="M3232 2560 c-8 -13 -8 -20 -2 -20 6 0 13 7 17 15 9 24 -1 27 -15 5z"/>
<path d="M5210 2501 c0 -5 5 -13 10 -16 6 -3 10 -2 10 4 0 5 -4 13 -10 16 -5
3 -10 2 -10 -4z"/>
<path d="M3126 2482 c-3 -6 -1 -14 5 -17 14 -9 20 -2 10 14 -6 8 -11 9 -15 3z"/>
<path d="M3490 2433 c0 -25 0 -26 20 -8 11 10 20 22 20 27 0 4 -9 8 -20 8 -15
0 -20 -7 -20 -27z"/>
<path d="M5250 2415 c0 -8 2 -15 4 -15 2 0 6 7 10 15 3 8 1 15 -4 15 -6 0 -10
-7 -10 -15z"/>
<path d="M3432 2290 c3 -85 -2 -110 -16 -74 -3 9 -6 31 -6 50 0 24 -5 34 -15
34 -12 0 -15 -14 -16 -62 -1 -35 -4 -53 -6 -40 -6 32 -23 27 -23 -8 0 -21 5
-30 16 -30 14 0 15 -8 9 -57 -4 -32 -11 -63 -17 -70 -5 -7 -8 -18 -5 -25 3 -8
9 -2 15 14 6 14 17 30 25 35 19 11 60 93 47 93 -14 0 -13 35 3 48 15 13 11
182 -5 182 -6 0 -9 -33 -6 -90z m-10 -129 c2 -17 1 -28 -4 -25 -8 5 -12 54 -4
54 2 0 6 -13 8 -29z"/>
<path d="M3750 2350 c0 -5 7 -10 16 -10 8 0 12 5 9 10 -3 6 -10 10 -16 10 -5
0 -9 -4 -9 -10z"/>
<path d="M5381 2234 c0 -11 3 -14 6 -6 3 7 2 16 -1 19 -3 4 -6 -2 -5 -13z"/>
<path d="M3450 2174 c0 -8 5 -12 10 -9 6 3 10 10 10 16 0 5 -4 9 -10 9 -5 0
-10 -7 -10 -16z"/>
<path d="M5602 1858 c-14 -14 -16 -28 -3 -28 9 0 24 30 18 36 -2 2 -9 -2 -15
-8z"/>
<path d="M5680 1740 c0 -5 5 -10 11 -10 5 0 7 5 4 10 -3 6 -8 10 -11 10 -2 0
-4 -4 -4 -10z"/>
<path d="M4776 1353 c-4 -9 -4 -14 0 -10 4 4 14 1 23 -6 14 -11 15 -10 1 8 -8
11 -15 21 -16 23 -1 2 -5 -5 -8 -15z"/>
<path d="M4819 1302 c5 -10 18 -25 27 -33 11 -9 9 -2 -6 19 -26 35 -36 42 -21
14z"/>
<path d="M4690 1280 c0 -11 5 -20 10 -20 6 0 10 9 10 20 0 11 -4 20 -10 20 -5
0 -10 -9 -10 -20z"/>
<path d="M4870 1221 c0 -5 7 -15 17 -22 15 -13 15 -12 4 9 -12 23 -21 28 -21
13z"/>
<path d="M4860 1193 c0 -4 5 -15 10 -23 8 -13 10 -13 10 2 0 9 -4 20 -10 23
-5 3 -10 3 -10 -2z"/>
<path d="M4915 1150 c3 -5 8 -10 11 -10 2 0 4 5 4 10 0 6 -5 10 -11 10 -5 0
-7 -4 -4 -10z"/>
<path d="M6090 1060 c-9 -16 -8 -18 5 -14 8 4 15 12 15 20 0 20 -7 17 -20 -6z"/>
<path d="M6250 831 c0 -6 5 -13 10 -16 6 -3 10 1 10 9 0 9 -4 16 -10 16 -5 0
-10 -4 -10 -9z"/>
<path d="M2952 681 l-223 -6 -38 -70 c-38 -71 -90 -158 -122 -206 -27 -41 -98
-156 -149 -245 l-47 -81 41 2 c23 2 580 3 1238 4 l1197 1 -88 133 c-120 180
-215 341 -243 409 l-23 58 -601 0 c-331 0 -628 2 -660 3 -32 2 -159 1 -282 -2z"/>
</g>
</svg>
